<svg width="64" height="66" viewBox="0 0 64 66" fill="none" xmlns="http://www.w3.org/2000/svg">
<g clip-path="url(#clip0_17_387)">
<path d="M18.1906 15.0091C18.319 14.3204 20.8908 13.8223 20.8908 14.5566C20.8908 15.0091 20.7992 15.6647 20.7374 16.1463C20.5927 17.2741 20.4482 18.4019 20.3028 19.5298C19.9633 22.1638 19.6214 24.798 19.238 27.4364C19.089 28.4616 19.1969 30.2484 18.6083 31.262C18.3015 31.7901 16.4763 32.016 16.4732 31.4775C16.4679 30.5533 16.7731 27.6375 16.9525 25.9377C17.3352 22.3102 17.5126 18.6455 18.1906 15.0091ZM18.6144 31.2484C18.3473 31.8438 16.4023 31.9863 16.4679 31.4013C16.5723 30.4702 17.8825 28.781 18.4341 27.7898C20.2271 24.5673 21.7799 21.3499 23.546 18.1283C24.1445 17.0367 25.683 13.8006 28.8712 14.3397C31.9767 14.8648 30.7815 17.8755 30.5279 19.2137C30.4317 19.7218 30.3334 20.2301 30.2328 20.7386C29.4235 24.8289 28.3109 29.004 27.5587 33.0894C27.1955 35.062 26.1158 37.7599 28.9722 39.1475C30.7595 40.0158 32.9051 37.4547 33.5234 36.8698C33.776 36.6307 34.026 36.3913 34.2749 36.1519C37.4771 33.0718 43.1608 26.9049 51.9091 26.7838C58.9097 26.6869 59.7971 30.9862 58.3674 33.7348C57.8085 34.8094 56.7991 36.3782 54.2985 37.0517C50.8094 37.9914 47.4518 36.127 49.5851 34.6097C50.0232 34.2981 50.6166 34.0237 51.247 33.7882C56.4054 31.8611 59.3512 34.4013 63.9709 34.2344C64.0876 34.2302 63.5311 34.2862 63.4697 34.289C63.117 34.3054 62.7699 34.3085 62.4277 34.305C61.4096 34.2947 60.466 34.1865 59.5805 34.0398C58.1511 33.8029 56.7903 33.3154 55.0794 33.3621C53.1488 33.4147 49.9147 34.5533 50.1087 35.5236C50.3348 36.6552 53.4848 37.0487 55.2983 35.7504C58.3818 33.543 58.9889 30.7615 57.3577 28.8631C56.1618 27.4713 53.4965 26.6048 49.5915 27.1837C41.6474 28.3614 37.2322 34.0348 34.482 37.0831C33.3638 38.3225 30.8887 41.1531 27.5587 39.8758C24.1706 38.5762 24.8336 35.991 25.1297 33.8732C25.6783 29.9498 26.5505 26.0034 27.3416 22.0581C27.6741 20.3998 28.1786 18.7103 28.3237 17.0702C28.3665 16.5867 28.3889 16.0569 28.0098 15.6477C27.8927 15.5213 27.7187 15.3979 27.4134 15.359C27.2536 15.3386 26.7022 15.3736 26.8864 15.3519C27.2389 15.3102 27.4102 15.2358 27.6897 15.1308C27.773 15.0995 27.5125 15.2818 27.3574 15.4529C27.1702 15.6594 27.0048 15.8675 26.8446 16.0755C26.3594 16.705 25.931 17.3371 25.5146 17.9683C25.0055 18.7401 24.5209 19.5123 24.0526 20.2844C23.2627 21.5868 22.5095 22.8901 21.8325 24.1918C20.6062 26.5491 19.6697 28.8964 18.6144 31.2484Z" fill="white" stroke="white" stroke-width="0.735632" stroke-linecap="round" stroke-linejoin="round"/>
<path d="M48.3207 41.5006C48.7408 41.2315 49.5492 41.2581 49.1896 41.53C48.2766 42.2204 46.9456 42.9672 45.7428 43.6362C43.5999 44.8282 41.0914 46.0399 38.1344 46.9267C37.2248 47.1995 35.0614 47.5892 34.9753 48.0266C34.8621 48.6014 35.1845 49.2589 35.9764 49.5714C36.9575 49.9586 37.9684 49.8678 38.3924 50.5553C39.5978 52.5101 38.9106 55.1183 37.9905 57.5373C37.6172 58.5186 37.2157 59.5638 36.2119 60.6304C35.8511 61.0139 35.1073 61.6458 33.9448 61.7119C32.5309 61.7923 32.6095 60.8131 32.5256 60.394C32.1976 58.7545 32.6957 56.8982 33.0796 55.1083C34.7259 47.4312 37.7204 39.4934 40.9533 31.534C41.8553 29.3133 42.6122 27.0915 43.9374 24.8042C44.186 24.375 44.9538 22.8292 46.6873 22.5599C48.2396 22.3188 48.5008 23.3404 48.661 23.7071C49.3734 25.3381 49.1075 27.233 48.5925 29.1358C47.0642 34.7827 42.4151 41.178 35.3394 47.4767C34.347 48.3601 33.2638 49.2554 31.9879 50.141C31.2095 50.6813 30.3662 51.2277 29.3685 51.7479C22.2064 55.4821 17.1926 52.32 15.4559 50.8853C15.0234 50.5279 14.6359 50.155 14.2778 49.7735C12.8228 48.2236 11.7357 46.5537 10.767 44.8596C10.6576 44.6684 11.5572 44.3774 11.7956 44.5282C12.1775 44.7698 12.2276 45.1846 12.4271 45.4863C12.9161 46.226 13.4281 46.9592 13.9921 47.6767C15.4149 49.4867 16.9735 51.4895 20.6657 52.4835C22.1966 52.8957 24.5453 53.2796 27.2832 52.0823C31.0962 50.4148 33.7149 47.7529 35.4799 46.0093C40.465 41.0846 44.1066 36.2122 46.0633 31.6351C47.0872 29.2401 47.8132 26.8444 47.5405 24.7024C47.478 24.2119 47.3797 23.7171 47.0184 23.306C46.9774 23.2594 46.5792 22.9368 46.4752 22.976C45.6213 23.298 44.9277 24.4955 44.7281 24.8147C43.5866 26.639 42.8594 28.4103 42.1697 30.1651C39.3192 37.4174 37.57 44.4882 35.806 51.5448C35.2638 53.7138 34.7231 55.8858 34.4566 58.0011C34.3667 58.7141 34.3093 59.4212 34.4437 60.0845C34.4858 60.2925 34.5412 60.4981 34.6484 60.6891C34.6961 60.7741 34.7503 60.8594 34.85 60.9282C34.8671 60.9401 34.9546 60.9575 34.9105 60.9605C34.7292 60.9728 34.6446 60.9468 34.4089 61.0041C34.304 61.0296 34.045 61.1494 34.1117 61.1064C34.8681 60.6194 35.1103 60.0288 35.3816 59.5804C36.2607 58.1273 36.7396 56.7236 37.0348 55.368C37.2207 54.5141 37.3077 53.68 37.297 52.8669C37.2873 52.1374 37.3023 51.3635 36.7865 50.7621C36.4402 50.3583 35.4281 50.3592 34.7759 50.0963C34.0557 49.806 33.838 49.3099 33.6973 48.8369C33.6054 48.5277 33.4555 48.1254 34.1539 47.7034C34.893 47.2568 38.8408 46.2821 40.1499 45.7799C43.453 44.5124 46.0332 42.9659 48.3207 41.5006Z" fill="white" stroke="white" stroke-width="0.588506" stroke-linecap="round" stroke-linejoin="round"/>
<path d="M16.6735 58.9405C16.8607 58.6855 17.2879 58.6986 17.2135 58.9753C17.1032 59.3857 16.5935 59.9509 16.3955 60.3819C15.6404 62.0255 15.4667 63.6447 15.2058 65.2404C15.2019 65.2642 15.1929 65.2881 15.1765 65.3117C14.661 66.0553 15.0587 63.8504 15.0697 63.7789C15.3041 62.2554 15.5404 60.4839 16.6735 58.9405ZM15.0865 65.3904C14.9264 65.4719 14.7869 65.3637 14.8942 65.2261C15.2609 64.7554 16.5796 64.0829 17.3047 63.0713C18.5038 61.3984 18.7251 59.6762 18.7444 58.0746C18.7475 57.8206 19.1993 57.6167 19.3208 57.8237C19.636 58.361 19.1613 59.7746 18.9557 60.4663C18.4524 62.1602 17.1833 64.3237 15.0865 65.3904Z" fill="white" stroke="white" stroke-width="0.294253" stroke-linecap="round" stroke-linejoin="round"/>
<path d="M8.54705 50.7333C8.7465 50.7553 9.05722 51.1285 8.93568 51.2141C8.73898 51.3527 8.14861 51.2108 7.85534 51.2442C7.13056 51.3269 6.48185 51.5097 5.86694 51.7278C3.65583 52.512 2.04447 53.9065 0.380073 55.2821C0.279872 55.3649 -0.0628036 55.0558 -0.0263131 54.9114C0.0273361 54.6991 0.343503 54.6211 0.502646 54.5066C0.98381 54.1603 1.47684 53.8265 1.97907 53.5027C3.55398 52.4872 5.89198 50.4407 8.54705 50.7333ZM0.314067 55.2947C0.127339 55.2564 -0.123226 54.9231 0.00559766 54.8749C0.225707 54.7926 0.723655 54.9402 1.02112 54.956C1.84929 55 2.63587 54.9828 3.38139 54.912C5.65073 54.6964 7.45177 53.9372 8.95177 52.8227C9.06511 52.7385 9.43151 53.0562 9.42241 53.236C9.41193 53.4431 9.10586 53.525 8.97249 53.6228C8.50901 53.9625 8.00518 54.2595 7.46118 54.5113C5.62474 55.3615 3.24996 55.8964 0.314067 55.2947Z" fill="white"/>
<path d="M24.9455 53.2844C24.8806 53.3867 24.6586 53.0886 24.6574 52.8838C24.6553 52.5208 24.8995 52.2936 24.9753 52.0223C25.1245 51.4884 25.19 50.8568 25.2465 50.1981C25.2508 50.1473 25.2705 50.1196 25.3075 50.1285C25.6125 50.2024 25.5212 50.9484 25.5065 51.0995C25.4234 51.9511 25.265 52.7799 24.9455 53.2844ZM25.5451 50.562C25.5317 50.7419 25.3081 50.5322 25.2545 50.2788C25.1777 49.9155 25.2646 49.5459 25.2552 49.2377C25.2293 48.3816 25.1158 47.4204 24.8685 46.3653C24.348 44.1447 23.2828 41.9716 21.9288 40.0835C21.7999 39.9037 21.7985 39.6633 21.932 39.7944C22.1498 40.0083 22.4695 40.5392 22.676 40.8592C23.2902 41.8113 23.8525 42.8773 24.2982 43.9732C25.3097 46.4601 25.6668 48.9233 25.5451 50.562ZM21.83 39.842C21.8166 39.6627 22.0028 39.8094 22.0571 40.0257C22.3047 41.0126 22.2758 42.0235 22.4257 42.9551C22.7056 44.6953 23.582 49.5976 25.3087 50.1289C25.4335 50.1672 25.5992 50.5268 25.5291 50.6182C25.4255 50.7534 24.981 50.396 24.7718 50.1961C24.2351 49.6833 23.772 48.7659 23.4432 47.8934C22.379 45.0702 21.9949 42.0414 21.83 39.842Z" fill="white" stroke="white" stroke-width="0.294253" stroke-linecap="round" stroke-linejoin="round"/>
<path d="M20.3752 52.8323C20.4407 52.6665 20.5963 52.589 20.5881 52.7372C20.5522 53.3792 20.1482 54.4224 20.0846 55.1425C19.9235 56.9664 20.2807 58.2846 20.7999 59.411C20.8597 59.5408 20.6682 59.8634 20.548 59.8238C20.2035 59.7103 20.0716 58.7041 19.9707 58.2421C19.6894 56.954 19.567 54.8762 20.3752 52.8323ZM20.6495 59.7916C20.5873 59.8381 20.5324 59.8387 20.511 59.7865C20.4327 59.5957 21.2952 58.8113 21.4885 58.4995C21.8653 57.8915 22.0129 57.2249 22.05 56.6877C22.1733 54.9034 21.4627 53.5167 20.5695 52.9866C20.5474 52.9734 20.5371 52.9415 20.5432 52.8956C20.6001 52.4703 21.2831 52.9434 21.36 53.009C21.8113 53.394 22.117 54.004 22.2805 54.7757C22.5465 56.0311 22.383 58.4945 20.6495 59.7916Z" fill="white" stroke="white" stroke-width="0.294253" stroke-linecap="round" stroke-linejoin="round"/>
<path d="M15.4464 48.0606C15.3142 48.0162 15.2226 47.8711 15.2483 47.7249C15.3386 47.2125 16.16 47.8133 15.6979 48.1136C14.7795 48.7105 12.8079 48.4315 11.73 48.4459C11.3618 48.4508 10.3888 48.3887 10.7312 49.052C10.863 49.3073 10.6165 49.5801 10.3849 49.4139C9.64579 48.8833 10.3885 48.0528 10.8924 47.9468C11.9436 47.7257 13.1094 47.8569 14.1852 47.7799C14.4611 47.7601 14.7368 47.738 15.0106 47.7049C15.1526 47.6877 15.5548 47.5575 15.4321 47.6298C15.3208 47.6954 15.5043 48.0801 15.4464 48.0606ZM10.3589 48.9413C10.5917 48.7816 10.8932 49.1283 10.7207 49.3679C10.1118 50.2134 8.99531 50.4852 8.67327 51.6484C8.59255 51.9399 8.62495 52.2444 8.80965 52.5067C9.00115 52.7787 9.28959 52.9646 9.5378 53.1686C10.5867 54.0306 9.89045 54.1531 9.00615 53.7076C8.75001 53.5785 8.83355 53.1537 9.11087 53.2148C9.3624 53.2702 9.6278 53.464 9.86656 53.5726C9.88739 53.5821 9.95153 53.5986 9.92969 53.5989C9.7869 53.6004 9.83322 54.1113 9.72814 53.9949C9.27657 53.4946 8.60468 53.2479 8.28486 52.6049C7.51511 51.0575 9.41584 49.5884 10.3589 48.9413ZM8.92068 53.2657C9.08319 53.1238 9.35125 53.2895 9.31861 53.5294C9.20515 54.3631 8.48059 54.6708 8.82659 55.7671C9.0444 56.4573 10.044 57.9261 10.809 57.9985C8.93246 57.8669 7.38708 54.6048 8.92068 53.2657ZM10.9268 57.9952C10.894 58.1817 10.7399 58.2942 10.5767 58.3292C10.4121 58.3645 10.9 58.1295 10.9268 57.9952ZM10.5086 58.2253C10.5451 58.1689 10.6311 58.2167 10.6173 58.2856C10.5548 58.5981 11.919 59.0946 11.9242 59.0961C12.2755 59.1989 12.2759 59.7755 11.8989 59.7439C11.7193 59.7288 10.1439 58.7887 10.5086 58.2253ZM11.6046 59.4603C11.579 59.2913 11.6579 59.1326 11.8117 59.0975C11.9615 59.0633 12.1102 59.1647 12.1729 59.3214C12.2027 59.3961 12.3131 59.2962 12.3826 59.2812C12.9045 59.1686 13.4315 59.0569 13.9663 59.0036C15.7511 58.8256 17.6436 58.9101 19.0026 57.5366C19.7245 56.8071 20.0375 55.812 20.21 54.7453C20.7622 51.3315 18.452 48.9769 15.4472 48.0608C15.1558 47.972 15.2014 47.4913 15.4991 47.5275C16.3555 47.6315 17.3001 48.0069 18.0931 48.4254C19.9271 49.3931 21.3924 51.765 21.2149 53.9052C20.9022 57.675 18.5891 59.239 15.3686 59.599C14.663 59.6778 11.7591 60.4802 11.6046 59.4603Z" fill="white" stroke="white" stroke-width="0.367816" stroke-linecap="round" stroke-linejoin="round"/>
<path d="M13.9251 54.8631C13.7417 54.9016 13.4837 54.8449 13.1265 54.6306C12.0199 53.9666 12.2191 52.5937 12.9107 52.5937C13.6024 52.5937 14.2792 53.4932 14.3253 53.9389C14.345 54.1013 14.3427 54.2987 14.294 54.4702" stroke="white" stroke-width="0.441379" stroke-linejoin="round"/>
<path d="M12.3574 51.7176C11.6657 52.5015 10.928 53.147 11.0663 53.977C11.2046 54.8069 12.634 55.9136 12.9107 56.0058C13.1873 56.098 11.6196 55.9136 12.1268 56.3747C12.634 56.8357 15.4467 56.7435 15.3084 56.3747" stroke="white" stroke-width="0.441379" stroke-linejoin="round"/>
<path d="M12.634 52.2709C13.7407 51.9942 12.1729 51.5331 14.8473 52.2709C16.9868 52.8611 16.5995 53.5005 16.1384 53.7464C15.7695 54.3458 14.9395 55.4709 14.5706 55.1758" stroke="white" stroke-width="0.441379" stroke-linejoin="round"/>
<path d="M12.9568 57.2046C13.71 57.3122 15.4836 57.011 16.5534 54.9453C17.8906 52.3631 15.9079 54.9256 15.6312 55.683C15.3545 56.4404 16.3689 56.7435 16.9684 56.4208C17.5678 56.098 19.6427 52.8242 16.9684 51.7637C14.294 50.7032 13.5102 50.9337 12.8646 50.611" stroke="white" stroke-width="0.441379" stroke-linejoin="round"/>
<path d="M15.6773 50.2882C12.6341 49.8271 10.3286 51.3487 10.6975 51.3026C10.9926 51.2657 10.5438 52.025 10.2825 52.4092C10.1441 53.0394 10.1349 53.5435 10.4669 54.3919" stroke="white" stroke-width="0.441379" stroke-linejoin="round"/>
<path d="M11.1882 45.0104C11.5535 45.2837 11.3132 45.5549 10.744 45.4262C10.188 45.3006 10.1491 44.9779 9.5674 45.0077C8.83504 45.0453 8.41738 45.4251 8.11151 45.7091C7.30002 46.4628 6.7178 47.41 6.64876 48.4137C6.63263 48.6483 6.54967 49.2457 7.18528 49.5035C7.37397 49.58 7.21828 49.6412 7.06039 49.5804C6.6232 49.4122 6.41464 49.1049 6.30408 48.8881C6.00401 48.2998 6.12741 47.7566 6.29304 47.2687C6.38492 46.998 6.50829 46.7369 6.64782 46.4814C6.75999 46.2761 6.88269 46.0743 7.02002 45.8779C7.36163 45.3891 9.14475 43.4815 11.1882 45.0104Z" fill="white"/>
<path d="M11.6889 45.5287C11.6976 45.9382 10.9005 45.4813 10.8322 45.0294C10.6346 43.72 11.1562 42.6525 11.7194 41.9401C12.2755 41.2366 13.1107 40.6903 14.2758 40.6975C14.7928 40.7007 16.2844 41.3469 15.8919 42.0339C15.8706 42.0711 15.8308 42.0884 15.7688 42.0754C15.1703 41.9495 15.6749 41.5171 15.2007 41.354C14.4513 41.0962 13.8703 41.4097 13.4591 41.6258C12.176 42.3001 11.6508 43.7246 11.6889 45.5287Z" fill="white"/>
<path d="M11.8937 44.9522C11.7259 45.3228 11.2899 45.1595 11.217 44.6477C11.1284 44.026 11.8754 43.0249 12.1498 42.6993C12.8565 41.8605 13.872 41.7219 14.8322 42.1917C15.0751 42.3105 15.1231 42.8365 14.8794 42.9016C14.3518 43.0427 13.7832 42.6289 13.2367 42.9136C12.5616 43.2653 12.2667 44.1279 11.8937 44.9522Z" fill="white"/>
<path d="M5.95436 39.1806C6.03746 39.0626 5.92344 39.3624 5.90696 39.3937C5.69927 39.7885 5.5979 40.1579 5.57949 40.4923C5.51291 41.7013 5.80802 41.143 6.85969 41.152C7.07223 41.1538 7.36407 41.2423 7.65122 41.1186C8.29139 40.8427 8.83313 38.8104 8.85906 38.4975C8.86467 38.4299 8.91419 37.8062 8.60648 38.0345C8.37083 38.2093 8.59015 37.7089 8.9482 37.802C9.07153 37.834 9.11436 37.9333 9.14478 38.0253C9.30163 38.4998 9.0054 40.7648 7.71312 41.3774C7.18428 41.6281 6.80006 41.4851 6.44953 41.4631C6.23134 41.4494 5.90017 41.6036 5.7264 41.5632C4.86421 41.3629 5.38963 39.9827 5.95436 39.1806Z" fill="white"/>
<path d="M6.60024 37.105C6.64995 36.9694 6.85668 36.9844 6.86984 37.1349C6.93222 37.8483 6.22288 38.833 6.86686 39.493C6.95979 39.5882 6.45604 40.0229 6.32763 39.1646C6.23066 38.5164 6.37542 37.718 6.60024 37.105Z" fill="white"/>
<path d="M7.04076 40.2359C7.00835 40.2699 7.27976 39.7598 7.37657 39.5279C7.57722 39.0473 7.66694 38.6008 7.61929 38.2103C7.5982 38.0375 6.71561 36.9855 7.67864 36.6611C8.28274 36.4576 8.84618 36.5722 9.24269 36.6201C11.2147 36.8585 10.9553 38.7006 9.5138 40.5014C9.45603 40.5736 9.22332 40.6967 9.68785 39.9869C9.98607 39.5312 10.1885 39.0933 10.2894 38.6896C10.5756 37.5445 10.2213 36.8999 8.80475 36.7828C8.49986 36.7576 8.10228 36.6996 7.67091 36.826C7.28269 36.9397 7.87903 37.6429 7.93268 37.8759C8.07173 38.4798 7.88547 39.3489 7.04076 40.2359Z" fill="white"/>
<path d="M4.81089 37.7864C4.91001 37.6903 5.08339 37.7801 5.04427 37.9192C4.77233 38.8863 4.00593 39.3605 4.34868 40.5494C4.62764 41.517 5.55379 42.2673 6.41149 42.7186C6.44076 42.734 5.78567 42.5535 5.51819 42.3809C4.92239 41.9964 4.37646 41.4793 4.11963 40.8041C3.75254 39.8391 4.06382 38.5109 4.81089 37.7864Z" fill="white"/>
<path d="M5.70605 41.5263C5.43814 41.129 6.45198 41.8815 6.47613 41.9C6.96957 42.2767 7.57773 42.5455 8.29004 42.6055C8.71796 42.6416 9.168 42.5862 9.64717 42.4574C9.75492 42.4284 9.7468 42.5793 9.63639 42.6228C9.10918 42.831 8.53241 42.8346 8.08093 42.7878C7.1241 42.6885 6.18535 42.2371 5.70605 41.5263Z" fill="white"/>
<path d="M10.0519 44.2479C8.77616 44.862 7.44141 45.3109 6.07427 45.2599C6.05485 45.2592 6.03549 45.2581 6.01606 45.2571C5.55624 45.233 5.04133 45.1355 4.58922 44.7751C4.43673 44.6535 4.3267 44.3167 4.50266 44.1697C4.69665 44.0078 4.9756 44.0259 5.19466 44.0365C5.52733 44.0526 4.93101 44.8971 4.60158 44.3464C4.55106 44.262 4.7224 44.448 4.78448 44.4843C4.90044 44.5521 5.01766 44.6061 5.13472 44.6573C5.49896 44.8164 5.86294 44.8664 6.22505 44.8776C7.51231 44.9171 8.81129 44.6289 10.0519 44.2479ZM5.23531 44.0506C5.28608 44.088 5.32277 44.1845 5.32119 44.2839C5.31426 44.7185 4.4833 43.9154 4.34725 43.8029C3.67355 43.2456 2.83314 42.5864 2.31909 41.4867C1.64307 40.0405 3.07643 38.841 3.04646 40.4008C3.03388 41.0556 2.79767 39.9504 2.77705 39.9499C2.61152 39.9463 2.32515 40.4787 2.33151 40.7712C2.3427 41.2864 2.77353 41.7742 2.97203 42.0172C3.68285 42.8876 4.46592 43.4837 5.23531 44.0506ZM3.04499 40.4314C3.02026 40.6538 2.83722 40.5411 2.85728 40.3159C2.93364 39.4584 3.18496 38.6434 3.50513 38.0864C4.16914 36.9311 5.21185 37.6072 5.79575 36.2246C5.84463 36.1088 5.95546 36.2455 5.92305 36.3868C5.82123 36.8306 5.57203 37.1724 5.34252 37.3435C4.22915 38.1737 3.38098 37.4104 3.04499 40.4314ZM5.89488 36.4429C5.82237 36.5068 5.74362 36.2986 5.80621 36.2041C6.08326 35.7854 6.61661 35.6739 6.96795 35.5574C7.94172 35.2345 9.10069 35.1868 10.0814 36.1771C10.1329 36.2291 10.1523 36.3575 10.1179 36.4317C10.0876 36.4972 9.21918 35.8567 8.8603 35.7515C7.85584 35.4571 6.75678 35.6835 5.89488 36.4429ZM10.1355 36.3417C10.1273 36.8307 9.67249 35.2672 10.4917 35.376C11.1241 35.4599 11.7601 36.58 12.1384 37.5392C13.4317 40.8185 11.3948 43.2365 10.0553 43.8957C10.0452 43.9007 10.0695 43.8462 10.2735 43.6124C10.4795 43.3765 10.6965 43.1869 10.9099 42.9741C11.467 42.4186 12.075 41.6159 12.3054 40.4429C12.6078 38.9042 11.9496 37.3583 11.2669 36.379C10.9572 35.9348 10.1562 35.1212 10.1355 36.3417Z" fill="white" stroke="white" stroke-width="0.367816" stroke-linecap="round" stroke-linejoin="round"/>
<path d="M10.3286 54.7147C10.1902 54.9606 9.99658 55.6 10.3286 56.1902C10.7436 56.928 11.8041 58.0807 13.049 58.3113" stroke="white" stroke-width="0.441379" stroke-linejoin="round"/>
<path d="M42.6244 8.25065C42.669 8.24818 42.3966 8.34465 42.351 8.35143C42.106 8.38788 41.8756 8.44143 41.6569 8.50799C41.0096 8.70498 40.4599 9.01191 39.9739 9.38554C38.751 10.3258 37.7962 11.6152 37.5744 13.5597C37.5535 13.7427 37.5415 13.934 37.5428 14.1373C37.546 14.6569 37.702 15.2966 37.8858 15.9683C37.9465 16.1901 38.0089 16.4137 38.0872 16.6495C38.1123 16.7251 38.1388 16.8019 38.172 16.8835C38.1894 16.9264 38.2747 17.0762 38.2371 17.0213C38.0706 16.7782 38.2216 16.5535 38.2656 16.355C38.2816 16.2825 38.5315 16.5042 38.5512 16.6101C38.5694 16.7077 38.457 17.5035 38.0538 16.9655C37.7291 16.5324 37.7001 16.0566 37.6316 15.8028C37.3322 14.6942 37.2327 13.799 37.364 13.0642C37.8615 10.2811 39.6466 8.41539 42.6244 8.25065ZM38.5516 16.6258C38.5439 16.6566 38.4837 16.6322 38.4102 16.5661C38.1292 16.3139 38.3616 15.9571 38.3847 15.8822C38.5007 15.5048 38.6469 15.1567 38.8092 14.8247C39.2883 13.8449 39.9144 13.0099 40.664 12.3069C42.2264 10.8415 45.11 10.6378 46.11 8.64159C46.769 7.32607 46.7985 5.38251 46.2301 2.95087C46.0484 2.17359 45.6848 1.2489 45.5005 0.47266C45.4666 0.329818 45.764 0.539329 45.8691 0.737968C46.0394 1.05972 46.081 1.35861 46.1629 1.61732C46.4008 2.36871 46.587 3.07918 46.7265 3.75103C47.134 5.71256 47.1347 7.34124 46.7034 8.54364C46.0545 10.3525 44.1046 10.6733 42.5675 11.542C40.661 12.6195 39.1513 14.2062 38.5516 16.6258ZM45.4989 0.437033C45.5325 0.354008 45.856 0.644045 45.8897 0.789053C46.032 1.40006 45.5693 1.89677 45.4821 2.33688C45.2607 3.45395 45.085 4.64021 45.2948 6.1504C45.3456 6.51635 45.3514 7.30344 46.0141 8.08628C46.1814 8.28377 46.1423 8.38452 45.9491 8.22234C45.5439 7.88217 45.2876 7.25669 45.2018 7.03491C44.8551 6.13832 44.8407 5.47537 44.8254 4.85655C44.7832 3.1478 45.0093 1.64651 45.4989 0.437033ZM49.532 22.042C49.5702 22.1907 49.2606 21.9664 49.16 21.7711C49.0153 21.4904 49.0284 21.2502 48.991 21.0502C48.8733 20.4217 48.8267 19.8542 48.8336 19.3347C48.854 17.7956 49.3459 16.6911 49.9535 15.7188C51.8564 12.6742 54.2508 10.0247 53.7174 4.63867C53.697 4.43262 54.21 4.82974 54.3426 5.12882C54.7408 6.02685 54.4473 7.04693 54.3647 7.55153C54.11 9.10896 53.4893 10.3228 52.8756 11.5298C51.3548 14.5209 48.0501 16.282 49.532 22.042ZM53.9099 4.95331C53.3558 4.3122 54.0547 4.58395 54.5802 5.42947C55.2506 6.50807 55.3672 7.33478 55.4899 8.00744C55.8602 10.0378 55.7272 11.6462 55.5087 13.1474C54.8201 17.8782 53.3566 21.9859 49.07 23.0261C48.9731 23.0496 48.6406 22.7057 48.6657 22.6053C48.7625 22.219 49.7273 22.2846 50.0723 22.1443C51.0483 21.7476 51.7355 21.0381 52.2828 20.1879C53.9708 17.566 55.0067 14.1616 55.022 9.9331C55.0257 8.92506 54.9869 7.85567 54.6137 6.52258C54.5275 6.21469 54.3972 5.51708 53.9099 4.95331ZM49.0853 23.0119C49.0405 23.0879 48.7104 22.8002 48.6679 22.6384C48.5441 22.1679 48.9563 21.8906 49.1432 21.6883C49.1994 21.6274 49.5233 21.9274 49.5351 22.0583C49.5763 22.517 49.2405 22.7488 49.0853 23.0119Z" fill="white" stroke="white" stroke-width="0.294253" stroke-linecap="round" stroke-linejoin="round"/>
<path d="M48.1045 24.4638C47.6373 25.1171 47.3129 24.5241 47.6784 23.5956C47.892 23.0532 48.3318 22.5886 48.6054 22.1446C49.258 21.0856 49.7894 19.7959 50.0349 18.4779C50.763 14.5695 49.453 12.0879 48.4271 10.6849C46.4095 7.92572 43.4693 7.17458 40.3155 7.63289C38.1786 7.9434 35.9413 8.88844 33.4638 12.2937C33.436 12.3318 33.4078 12.3461 33.3916 12.3256C33.3046 12.2158 33.9743 11.3276 34.0665 11.2056C34.5645 10.5463 35.0733 10.0139 35.5712 9.5806C37.0566 8.28761 38.4714 7.75791 39.7743 7.49405C43.9201 6.6544 48.0289 7.78242 50.0791 12.5656C51.2017 15.1847 51.3164 19.9717 48.1045 24.4638Z" fill="white" stroke="white" stroke-width="0.294253" stroke-linecap="round" stroke-linejoin="round"/>
<path d="M36.6404 8.38307C36.7724 8.38387 36.6827 8.57715 36.5158 8.63568C36.1232 8.77334 35.8131 8.7108 35.3778 8.8899C34.7335 9.15496 34.1578 9.63858 33.7604 10.175C32.5552 11.8021 32.6269 13.3851 32.6208 14.6116C32.6206 14.658 32.5771 14.7217 32.5111 14.7689C32.1895 14.9987 32.3195 13.9024 32.3313 13.7356C32.3907 12.8952 32.5304 11.9723 33.0228 10.9757C33.6821 9.641 35.2384 8.37468 36.6404 8.38307ZM32.5868 14.6958C32.4749 14.8417 32.2517 14.8707 32.3171 14.7261C32.5782 14.1497 33.4803 13.2123 33.9794 12.6328C34.9906 11.4585 36.6452 10.4285 37.105 9.69245C37.5993 8.90101 37.6677 8.16826 36.5315 8.62963C36.1494 8.78475 36.991 7.99079 37.5681 8.23423C37.9731 8.40503 37.7432 9.04416 37.4371 9.56346C36.7057 10.8044 36.162 10.6821 35.2333 11.5661C34.1916 12.5578 33.3837 13.6563 32.5868 14.6958Z" fill="white" stroke="white" stroke-width="0.294253" stroke-linecap="round" stroke-linejoin="round"/>
<path d="M39.7202 7.25006C39.7807 7.32592 39.6546 7.56262 39.5896 7.49508C39.3829 7.28032 39.327 6.85019 39.1441 6.60116C38.7764 6.10067 38.2103 5.89853 37.6989 5.72276C35.4873 4.96271 32.7122 5.2892 30.7362 3.92674C30.6981 3.90049 30.6998 3.80577 30.7431 3.7202C30.8587 3.49153 31.3902 3.91221 31.4944 3.95626C32.0091 4.17381 32.5464 4.33478 33.0881 4.48114C35.028 5.00529 37.5413 4.76587 39.1239 6.22003C39.3906 6.46507 39.4845 6.95485 39.7202 7.25006ZM30.7141 3.89473C30.6894 3.81026 30.7581 3.64892 30.832 3.62545C30.8592 3.61682 31.4056 4.68301 31.4816 4.79031C31.9863 5.50286 32.5992 6.0259 33.2601 6.42505C35.0972 7.53468 37.3388 7.67204 39.6853 7.24604C39.7373 7.23659 39.7483 7.3311 39.7044 7.41899C39.5775 7.67307 38.8354 7.66012 38.6838 7.68424C37.943 7.80214 37.2169 7.85726 36.5191 7.81951C34.3041 7.69966 31.5921 6.89024 30.7141 3.89473Z" fill="white" stroke="white" stroke-width="0.294253" stroke-linecap="round" stroke-linejoin="round"/>
<path d="M38.553 14.3876C38.5487 14.4078 38.5338 14.426 38.5062 14.4398C38.1616 14.6119 38.2821 13.9174 38.2981 13.8301C38.3851 13.3548 38.5211 12.8838 38.7556 12.4273C39.5258 10.9278 41.3531 9.60907 43.4722 8.57424C43.629 8.49768 43.9019 8.60292 43.8002 8.70496C43.332 9.17439 42.1958 9.57794 41.5625 10.0058C39.6043 11.3287 38.9143 12.7212 38.553 14.3876Z" fill="white"/>
<path d="M51.339 18.4027C51.2187 18.5057 51.1517 18.1701 51.2595 17.9561C51.5867 17.307 52.0177 16.8543 52.3619 16.2057C53.2559 14.5211 53.9475 12.4492 54.272 9.97785C54.3996 9.00639 54.4164 10.3832 54.3721 10.7253C54.251 11.6594 54.0678 12.5802 53.8334 13.4427C53.2552 15.5699 52.3177 17.5657 51.339 18.4027Z" fill="white"/>
<path d="M39.3236 7.2705C39.5198 7.32548 39.8416 7.58009 39.7195 7.5898C39.5181 7.60583 38.9713 7.42039 38.6513 7.33964C37.5825 7.06996 35.9333 6.6725 34.3494 5.83946C33.712 5.50421 35.516 6.18086 35.5849 6.20302C36.8999 6.62605 38.0914 6.9253 39.3236 7.2705Z" fill="white"/>
</g>
<defs>
<clipPath id="clip0_17_387">
<rect width="64" height="65.1066" fill="white" transform="translate(0 0.397705)"/>
</clipPath>
</defs>
</svg>
