<svg width="1318" height="229" viewBox="0 0 1318 229" fill="none" xmlns="http://www.w3.org/2000/svg">
<path d="M64.93 14.677C63.66 15.587 63.05 16.857 61.49 20.417C59.93 23.977 59.34 26.327 57.12 32.497C54.9 38.667 53.41 42.927 50.38 51.287C47.35 59.637 45.6 64.507 41.98 74.257C38.36 84.007 36.16 89.607 32.28 100.047C28.39 110.477 26.19 116.137 22.58 126.427C18.96 136.717 17.17 142.337 14.21 151.487C11.24 160.627 9.84999 165.167 7.72999 172.157C5.60999 179.147 4.39998 182.167 3.59998 186.417C2.78998 190.677 2.77998 192.247 3.68998 193.417C4.60998 194.587 6.66 194.667 8.18 192.277C9.7 189.887 9.59 187.277 11.27 181.457C12.95 175.647 14.02 171.547 16.57 163.207C19.13 154.867 20.7 149.667 24.04 139.757C27.39 129.857 29.36 124.227 33.3 113.657C37.24 103.097 39.52 97.367 43.75 86.947C47.98 76.537 50.23 71.107 54.43 61.577C58.62 52.037 60.72 47.277 64.73 39.257C68.74 31.227 70.82 27.387 74.47 21.447C78.12 15.517 80.56 12.737 82.97 9.56702C85.38 6.38702 85.78 5.407 86.51 5.577C87.24 5.747 86.68 6.48701 86.62 10.407C86.56 14.327 86.82 17.697 86.21 25.167C85.61 32.637 84.85 37.877 83.58 47.767C82.32 57.647 81.33 63.607 79.9 74.607C78.47 85.597 77.6 91.717 76.45 102.757C75.3 113.787 74.66 119.677 74.17 129.777C73.68 139.877 73.58 144.887 73.99 153.257C74.4 161.627 74.83 165.427 76.22 171.617C77.61 177.807 78.47 180.427 80.95 184.217C83.44 188.007 85.18 189.617 88.65 190.557C92.12 191.497 94.49 191.097 98.3 188.927C102.1 186.757 103.8 184.727 107.68 179.707C111.57 174.687 113.53 171.277 117.71 163.807C121.88 156.337 124.14 151.627 128.57 142.347C132.99 133.057 135.41 127.557 139.85 117.387C144.29 107.217 146.69 101.467 150.77 91.507C154.85 81.537 156.92 76.377 160.26 67.557C163.6 58.737 165.1 54.477 167.45 47.407C169.81 40.337 170.74 37.167 172.03 32.217C173.33 27.257 173.78 25.547 173.93 22.617C174.07 19.697 173.4 18.617 172.78 17.607C172.15 16.587 171.47 16.657 170.8 17.557C170.13 18.467 169.93 19.357 169.44 22.117C168.96 24.887 169.32 26.497 168.37 31.377C167.42 36.267 166.78 39.477 164.7 46.547C162.62 53.607 161.17 57.887 157.96 66.707C154.75 75.517 152.7 80.687 148.65 90.637C144.6 100.587 142.19 106.337 137.7 116.447C133.21 126.557 130.76 132.047 126.2 141.197C121.65 150.347 119.26 154.997 114.92 162.187C110.59 169.387 108.32 172.637 104.51 177.147C100.7 181.657 98.8 183.007 95.87 184.747C92.94 186.487 92.18 186.427 89.88 185.857C87.57 185.297 86.45 184.927 84.35 181.917C82.24 178.917 80.9 176.607 79.35 170.847C77.81 165.077 77.19 161.297 76.63 153.097C76.06 144.907 76.09 139.907 76.5 129.877C76.92 119.857 77.53 113.977 78.69 102.987C79.85 91.997 80.73 85.887 82.29 74.927C83.84 63.967 84.94 58.047 86.46 48.167C87.99 38.297 89 33.147 89.91 25.537C90.83 17.937 91.57 14.627 91.02 10.157C90.47 5.67701 89.38 3.79699 87.16 3.16699C84.94 2.53699 82.99 3.65702 79.92 7.00702C76.86 10.357 75.3 13.667 71.82 19.897C68.33 26.127 66.38 30.007 62.49 38.157C58.6 46.317 56.52 51.077 52.37 60.677C48.22 70.267 45.98 75.697 41.74 86.137C37.5 96.567 35.2 102.307 31.17 112.857C27.14 123.417 25.15 129.047 21.59 138.897C18.02 148.757 16.26 153.897 13.33 162.137C10.4 170.367 8.93998 174.397 6.93998 180.077C4.93998 185.747 3.65 187.857 3.33 190.517C3.01 193.167 4.50999 193.997 5.35999 193.347C6.19999 192.707 6.49999 191.377 7.53999 187.297C8.58999 183.217 8.78997 179.977 10.59 172.957C12.39 165.947 13.71 161.377 16.54 152.217C19.36 143.067 21.13 137.447 24.71 127.177C28.29 116.897 30.49 111.247 34.42 100.847C38.35 90.447 40.59 84.857 44.38 75.167C48.16 65.487 50.03 60.647 53.34 52.417C56.66 44.177 58.39 40.017 60.95 34.007C63.51 27.987 64.79 25.947 66.16 22.327C67.54 18.707 68.08 17.427 67.83 15.897C67.59 14.367 66.2 13.777 64.93 14.677Z" fill="white" stroke="white"/>
<path d="M185.22 103.987C183.86 104.697 182.83 105.877 181.49 108.777C180.15 111.687 179.8 113.867 178.53 118.497C177.25 123.127 176.41 126.457 175.13 131.927C173.84 137.397 173.09 140.477 172.12 145.857C171.15 151.227 170.59 154.087 170.26 158.787C169.94 163.497 169.53 165.817 170.49 169.367C171.46 172.907 172.49 174.697 175.11 176.507C177.72 178.317 179.92 178.917 183.57 178.407C187.21 177.897 189.12 176.637 193.32 173.967C197.52 171.307 199.8 169.247 204.56 165.097C209.31 160.947 212.04 158.147 217.11 153.217C222.18 148.287 225.39 144.897 229.91 140.437C234.43 135.977 237.19 133.607 239.71 130.927C242.22 128.247 242.46 127.127 242.49 127.037C242.52 126.957 241.18 127.597 239.87 130.487C238.55 133.387 237.52 136.527 235.92 141.527C234.32 146.527 233.09 150.157 231.85 155.477C230.6 160.797 229.83 163.607 229.69 168.117C229.55 172.627 229.3 175.057 231.13 178.027C232.96 180.997 235.12 182.517 238.86 182.967C242.59 183.427 244.87 182.627 249.79 180.297C254.7 177.967 257.43 176.137 263.43 171.337C269.43 166.527 272.9 163.297 279.78 156.257C286.67 149.227 290.47 144.827 297.86 136.147C305.24 127.457 309.29 122.387 316.71 112.837C324.13 103.287 328.1 97.877 334.96 88.397C341.83 78.917 345.25 73.867 351.03 65.437C356.81 56.997 359.74 52.437 363.86 46.237C367.98 40.037 370.31 37.477 371.62 34.447C372.93 31.417 371.67 30.087 370.41 31.087C369.15 32.097 368.06 34.207 365.33 39.447C362.59 44.687 360.63 48.937 356.73 57.277C352.82 65.627 350.35 71.287 345.8 81.177C341.24 91.077 338.55 96.817 333.96 106.737C329.36 116.657 326.87 121.937 322.81 130.767C318.76 139.597 316.79 144.067 313.69 150.887C310.6 157.707 309.1 160.887 307.34 164.877C305.58 168.867 305.08 169.927 304.9 170.857C304.71 171.787 306.06 171.427 306.41 169.537C306.77 167.647 307.02 165.337 306.67 161.387C306.31 157.437 305.67 154.147 304.64 149.777C303.61 145.407 303.04 142.587 301.51 139.537C299.98 136.477 298.74 135.287 296.99 134.497C295.25 133.707 293.7 134.157 292.79 135.567C291.87 136.967 291.09 139.197 292.42 141.517C293.75 143.847 295.65 145.427 299.43 147.177C303.21 148.927 305.76 149.427 311.32 150.257C316.88 151.087 320.14 151.387 327.22 151.307C334.3 151.227 338.47 150.857 346.72 149.847C354.98 148.847 359.72 147.957 368.52 146.277C377.31 144.597 382.73 143.287 390.72 141.447C398.71 139.617 402.72 138.607 408.46 137.097C414.21 135.597 417.39 135.087 419.44 133.927C421.5 132.767 421.09 131.287 418.74 131.317C416.39 131.347 413.44 132.647 407.69 134.077C401.95 135.497 397.96 136.577 390.02 138.437C382.07 140.297 376.69 141.717 367.96 143.367C359.23 145.017 354.51 145.857 346.37 146.677C338.23 147.507 334.08 147.757 327.27 147.487C320.47 147.217 317.23 146.687 312.35 145.327C307.46 143.977 305.68 142.467 302.86 140.707C300.04 138.947 299.79 137.577 298.25 136.547C296.71 135.507 296.1 135.447 295.17 135.527C294.23 135.617 293.78 135.607 293.58 136.967C293.39 138.317 293.47 139.367 294.21 142.297C294.94 145.217 296.21 147.537 297.25 151.587C298.29 155.647 298.47 158.737 299.39 162.577C300.31 166.417 300.4 168.767 301.84 170.797C303.28 172.837 304.76 173.597 306.58 172.737C308.4 171.887 308.98 170.657 310.94 166.517C312.9 162.377 313.56 158.997 316.38 152.047C319.2 145.097 321.1 140.637 325.05 131.777C328.99 122.917 331.47 117.627 336.1 107.737C340.72 97.837 343.44 92.097 348.17 82.297C352.9 72.507 355.6 66.957 359.74 58.747C363.89 50.537 366.36 46.587 368.91 41.237C371.46 35.877 372.56 33.727 372.47 31.967C372.38 30.207 370.68 29.897 368.46 32.437C366.24 34.977 365.24 38.307 361.37 44.647C357.5 50.987 354.73 55.637 349.11 64.147C343.49 72.647 340.08 77.697 333.27 87.177C326.45 96.657 322.48 102.047 315.05 111.537C307.61 121.037 303.55 126.087 296.1 134.637C288.66 143.187 284.8 147.527 277.83 154.297C270.86 161.077 267.25 164.147 261.27 168.507C255.28 172.867 252.29 174.287 247.91 176.097C243.54 177.907 241.79 177.707 239.39 177.557C237 177.397 236.8 177.167 235.93 175.327C235.07 173.497 234.82 172.087 235.08 168.387C235.34 164.677 235.96 161.817 237.25 156.807C238.54 151.797 239.89 148.327 241.52 143.347C243.16 138.367 245.05 135.517 245.4 131.907C245.76 128.307 245.07 126.247 243.29 125.317C241.5 124.387 239.77 124.847 236.49 127.277C233.22 129.707 231.33 132.857 226.9 137.467C222.47 142.087 219.37 145.497 214.33 150.347C209.29 155.187 206.46 157.887 201.71 161.687C196.95 165.477 194.4 167.217 190.56 169.327C186.72 171.437 184.99 171.697 182.51 172.247C180.03 172.787 179.43 172.917 178.16 172.057C176.89 171.197 176.72 170.557 176.16 167.957C175.6 165.357 175.22 163.297 175.36 159.057C175.49 154.807 175.89 151.887 176.85 146.717C177.8 141.547 178.66 138.497 180.12 133.197C181.58 127.897 182.64 124.657 184.15 120.227C185.66 115.797 186.85 114.047 187.68 111.057C188.51 108.057 188.78 106.657 188.29 105.247C187.79 103.827 186.58 103.287 185.22 103.987Z" fill="white" stroke="white"/>
<path d="M697.818 76.0219C696.658 76.7219 696.228 77.4519 694.828 80.5119C693.418 83.5619 693.048 85.8419 690.798 91.3219C688.548 96.7919 687.138 100.582 683.578 107.872C680.008 115.172 677.708 119.552 672.958 127.802C668.208 136.042 665.148 140.842 659.838 149.092C654.528 157.352 651.598 161.702 646.418 169.072C641.248 176.432 638.448 180.102 633.978 185.922C629.498 191.732 627.198 194.272 624.058 198.142C620.918 202.012 619.058 203.512 618.278 205.262C617.488 207.022 618.468 207.912 620.138 206.912C621.798 205.912 623.348 204.082 626.598 200.252C629.848 196.422 631.998 193.682 636.398 187.752C640.808 181.822 643.488 178.042 648.608 170.592C653.738 163.142 656.668 158.782 662.028 150.512C667.388 142.242 670.488 137.452 675.418 129.242C680.348 121.042 682.768 116.682 686.678 109.482C690.588 102.272 692.278 98.5819 694.968 93.2219C697.658 87.8519 698.998 85.8919 700.128 82.6419C701.268 79.4019 701.098 78.3219 700.628 76.9919C700.168 75.6719 698.978 75.3219 697.818 76.0219Z" fill="white" stroke="white"/>
<path d="M648.728 59.1319C650.328 58.8119 651.078 57.1519 654.628 55.0819C658.168 53.0119 660.368 51.3919 666.458 48.7719C672.538 46.1619 676.598 44.4919 685.038 42.0119C693.468 39.5219 698.678 38.5019 708.618 36.3519C718.568 34.1919 724.208 33.0619 734.768 31.2419C745.318 29.4119 751.108 28.5619 761.398 27.2319C771.688 25.9119 777.118 25.3819 786.208 24.6119C795.288 23.8519 799.728 23.5019 806.828 23.4019C813.918 23.3019 817.168 23.8519 821.678 24.1019C826.188 24.3619 827.318 24.6219 829.388 24.6919C831.468 24.7719 831.428 24.7819 832.058 24.4919C832.688 24.2019 832.968 23.9419 832.558 23.2419C832.158 22.5319 832.168 21.5819 830.028 20.9419C827.878 20.3019 826.508 20.1719 821.838 20.0619C817.178 19.9419 813.888 19.9719 806.718 20.3719C799.538 20.7819 795.098 21.1819 785.968 22.0919C776.848 23.0019 771.418 23.5519 761.098 24.9119C750.778 26.2819 744.968 27.1419 734.368 28.9219C723.768 30.6919 718.128 31.8019 708.088 33.8119C698.058 35.8219 692.818 36.7219 684.188 38.9819C675.568 41.2419 671.378 42.6819 664.978 45.0919C658.568 47.5019 655.818 48.7019 652.148 51.0219C648.488 53.3319 647.318 55.0419 646.638 56.6619C645.958 58.2919 647.138 59.4519 648.728 59.1319Z" fill="white" stroke="white"/>
<path d="M663.038 110.582C663.988 111.412 664.568 112.272 667.438 112.032C670.318 111.782 672.338 110.712 677.398 109.342C682.468 107.982 685.968 106.992 692.758 105.212C699.558 103.442 703.848 102.322 711.378 100.462C718.908 98.6019 723.108 97.5519 730.408 95.9019C737.708 94.2619 741.448 93.2919 747.868 92.2319C754.288 91.1719 757.468 90.8419 762.518 90.6119C767.558 90.3719 770.028 90.4919 773.078 91.0419C776.128 91.6019 776.808 91.8919 777.778 93.3719C778.748 94.8619 778.578 95.4719 777.948 98.4719C777.318 101.472 776.628 103.772 774.638 108.382C772.638 112.982 770.958 116.052 767.978 121.512C764.988 126.972 762.948 130.312 759.708 135.692C756.468 141.072 754.528 144.022 751.758 148.402C748.988 152.782 746.998 154.622 745.858 157.582C744.718 160.542 745.008 162.032 746.048 163.182C747.088 164.332 748.868 164.702 751.068 163.332C753.278 161.962 754.338 159.842 757.068 156.322C759.788 152.802 761.438 150.012 764.698 145.722C767.958 141.442 769.988 138.772 773.348 134.902C776.708 131.032 778.638 129.022 781.498 126.382C784.368 123.742 785.798 122.922 787.678 121.692C789.568 120.472 789.718 120.132 790.928 120.252C792.128 120.372 792.268 121.112 793.708 122.292C795.148 123.472 795.728 124.712 798.128 126.152C800.528 127.592 802.188 128.302 805.708 129.492C809.228 130.682 811.318 131.402 815.718 132.102C820.118 132.802 822.568 133.152 827.708 132.982C832.848 132.812 835.738 132.462 841.428 131.252C847.118 130.052 850.368 129.112 856.158 126.972C861.938 124.842 865.098 123.342 870.348 120.582C875.598 117.822 878.218 116.082 882.428 113.162C886.638 110.242 888.848 108.892 891.378 105.982C893.918 103.082 894.908 101.382 895.108 98.6419C895.298 95.9019 894.488 93.9719 892.338 92.2919C890.188 90.6019 888.108 89.7719 884.338 90.2419C880.568 90.7019 878.178 92.0919 873.488 94.5919C868.798 97.1019 865.978 98.9119 860.888 102.742C855.788 106.562 852.708 109.042 847.998 113.722C843.288 118.402 840.758 121.192 837.318 126.132C833.868 131.072 832.228 133.712 830.768 138.412C829.318 143.112 828.898 145.732 830.048 149.642C831.198 153.552 832.838 155.602 836.518 157.972C840.208 160.332 842.808 160.912 848.478 161.472C854.148 162.022 857.658 161.712 864.868 160.752C872.078 159.782 876.308 158.792 884.528 156.642C892.748 154.482 897.408 152.892 905.968 149.972C914.518 147.052 919.228 145.222 927.298 142.042C935.358 138.862 939.398 137.042 946.308 134.062C953.208 131.082 956.548 129.502 961.808 127.142C967.068 124.782 969.598 124.182 972.608 122.262C975.608 120.332 976.418 119.262 976.828 117.512C977.238 115.752 976.468 114.412 974.648 113.492C972.828 112.582 970.948 112.052 967.728 112.942C964.518 113.832 962.608 115.422 958.548 117.932C954.498 120.442 951.988 122.142 947.458 125.472C942.938 128.802 940.308 130.822 935.918 134.562C931.528 138.302 929.048 140.492 925.508 144.182C921.968 147.872 920.028 149.652 918.218 153.012C916.418 156.372 915.958 158.262 916.478 160.982C916.988 163.702 918.188 165.492 920.798 166.612C923.418 167.722 925.608 167.722 929.548 166.562C933.488 165.392 935.688 163.942 940.508 160.792C945.338 157.642 948.058 155.582 953.678 150.802C959.298 146.032 962.528 143.062 968.608 136.932C974.688 130.802 977.948 127.282 984.058 120.162C990.168 113.042 993.378 108.942 999.168 101.322C1004.97 93.7119 1007.9 89.5719 1013.04 82.1019C1018.18 74.6219 1020.62 70.7119 1024.88 63.9619C1029.15 57.2019 1031.58 53.4819 1034.37 48.3119C1037.17 43.1319 1038.73 40.8219 1038.84 38.0719C1038.95 35.3319 1037.1 33.9019 1034.9 34.5819C1032.71 35.2619 1031.22 37.0719 1027.86 41.4919C1024.51 45.9119 1022.29 49.6119 1018.12 56.6719C1013.96 63.7319 1011.42 68.4719 1007.06 76.8019C1002.7 85.1319 1000.16 89.9219 996.338 98.3419C992.508 106.762 990.578 111.202 987.948 118.892C985.318 126.592 984.028 130.412 983.178 136.822C982.328 143.222 982.288 146.192 983.708 150.922C985.128 155.662 986.608 157.882 990.278 160.482C993.958 163.092 996.618 163.692 1002.07 163.952C1007.52 164.212 1010.95 163.462 1017.52 161.772C1024.1 160.082 1027.83 158.572 1034.94 155.512C1042.04 152.442 1045.94 150.292 1053.04 146.452C1060.14 142.622 1063.9 140.242 1070.41 136.342C1076.93 132.442 1080.19 130.272 1085.6 126.942C1091 123.612 1093.57 122.062 1097.44 119.702C1101.31 117.352 1103.12 116.792 1104.95 115.162C1106.78 113.522 1106.71 112.662 1106.59 111.522C1106.48 110.392 1105.67 109.992 1104.37 109.482C1103.06 108.982 1101.79 108.632 1100.06 109.012C1098.34 109.392 1097.37 110.102 1095.75 111.402C1094.13 112.702 1093.51 113.842 1091.97 115.512C1090.43 117.182 1089.55 117.992 1088.04 119.752C1086.53 121.522 1085.66 122.422 1084.44 124.332C1083.22 126.242 1082.71 127.352 1081.94 129.302C1081.16 131.262 1080.75 132.182 1080.57 134.112C1080.4 136.042 1080.39 137.232 1081.06 138.962C1081.72 140.702 1082.48 141.552 1083.91 142.772C1085.34 143.992 1086.12 144.552 1088.22 145.062C1090.32 145.572 1091.75 145.822 1094.4 145.322C1097.04 144.812 1098.51 144.012 1101.44 142.542C1104.37 141.072 1105.83 139.922 1109.06 137.992C1112.29 136.052 1114.18 135.042 1117.58 132.862C1120.98 130.672 1122.75 129.392 1126.05 127.062C1129.34 124.742 1131.04 123.492 1134.05 121.222C1137.05 118.962 1138.58 117.972 1141.08 115.742C1143.57 113.512 1144.81 112.372 1146.52 110.082C1148.24 107.782 1148.78 106.552 1149.65 104.262C1150.52 101.962 1150.85 100.822 1150.87 98.6019C1150.89 96.3819 1150.72 95.1219 1149.74 93.1419C1148.76 91.1719 1147.88 90.1119 1145.95 88.7219C1144.02 87.3419 1142.8 86.7319 1140.09 86.2419C1137.38 85.7519 1135.67 85.6819 1132.38 86.2819C1129.1 86.8719 1127.26 87.5619 1123.66 89.2019C1120.06 90.8519 1118.17 92.0419 1114.39 94.5119C1110.62 96.9819 1108.53 98.4619 1104.78 101.572C1101.02 104.682 1099.02 106.542 1095.6 110.072C1092.19 113.592 1090.46 115.552 1087.7 119.222C1084.93 122.882 1083.54 124.812 1081.76 128.402C1079.98 131.992 1079.04 133.892 1078.81 137.172C1078.57 140.462 1079.16 142.262 1080.6 144.842C1082.04 147.432 1083.2 148.802 1085.99 150.092C1088.79 151.382 1090.84 151.632 1094.59 151.312C1098.33 150.982 1100.38 150.122 1104.72 148.472C1109.06 146.812 1111.49 145.542 1116.29 143.032C1121.09 140.522 1123.88 138.912 1128.72 135.912C1133.55 132.922 1136.42 130.732 1140.48 128.072C1144.54 125.412 1146.95 124.422 1149 122.602C1151.05 120.782 1151.07 119.522 1150.71 118.972C1150.34 118.422 1148.85 118.352 1147.18 119.872C1145.51 121.382 1144.22 123.242 1142.37 126.542C1140.52 129.842 1139.29 132.362 1137.93 136.362C1136.56 140.372 1135.7 142.622 1135.56 146.552C1135.42 150.472 1135.45 152.852 1137.24 155.992C1139.03 159.142 1140.87 160.612 1144.51 162.272C1148.14 163.932 1150.43 164.182 1155.42 164.302C1160.41 164.412 1163.43 163.962 1169.45 162.852C1175.47 161.742 1178.97 160.812 1185.53 158.742C1192.09 156.682 1195.76 155.212 1202.27 152.512C1208.78 149.822 1212.33 148.082 1218.07 145.262C1223.81 142.432 1226.76 140.732 1230.97 138.402C1235.18 136.062 1236.92 135.392 1239.12 133.582C1241.32 131.782 1241.65 130.522 1241.97 129.362C1242.28 128.202 1241.83 127.772 1240.69 127.782C1239.55 127.792 1238.68 128.082 1236.28 129.412C1233.87 130.742 1232.65 131.972 1228.66 134.452C1224.66 136.932 1221.87 138.882 1216.31 141.822C1210.75 144.752 1207.25 146.502 1200.87 149.142C1194.49 151.782 1190.84 153.172 1184.41 155.042C1177.98 156.902 1174.49 157.662 1168.74 158.462C1162.99 159.272 1160 159.392 1155.66 159.072C1151.32 158.742 1149.59 158.072 1147.03 156.852C1144.48 155.632 1143.85 154.902 1142.88 152.952C1141.92 150.992 1141.82 149.852 1142.21 147.082C1142.61 144.302 1143.38 142.382 1144.86 139.052C1146.33 135.712 1147.97 133.642 1149.61 130.392C1151.24 127.132 1152.66 125.352 1153.03 122.772C1153.39 120.202 1152.92 118.622 1151.43 117.522C1149.95 116.412 1148.41 116.002 1145.61 117.252C1142.81 118.492 1141.33 120.832 1137.44 123.752C1133.56 126.672 1130.86 128.902 1126.18 131.852C1121.5 134.802 1118.71 136.312 1114.04 138.502C1109.37 140.702 1106.83 141.682 1102.83 142.822C1098.83 143.952 1096.91 143.992 1094.03 144.192C1091.15 144.382 1090.07 144.222 1088.44 143.792C1086.81 143.362 1086.44 143.262 1085.89 142.062C1085.34 140.862 1085.42 140.032 1085.68 137.792C1085.94 135.552 1085.93 133.962 1087.2 130.882C1088.47 127.802 1089.61 125.832 1092.03 122.382C1094.46 118.942 1096.1 117.002 1099.33 113.672C1102.55 110.352 1104.51 108.582 1108.14 105.772C1111.77 102.952 1113.87 101.602 1117.47 99.6019C1121.08 97.6019 1122.95 96.7219 1126.17 95.7719C1129.39 94.8119 1130.99 95.0519 1133.57 94.8219C1136.16 94.5919 1137.38 94.6019 1139.11 94.6319C1140.83 94.6619 1141.28 94.6419 1142.2 94.9719C1143.12 95.3019 1143.31 95.6119 1143.7 96.2819C1144.1 96.9619 1144.28 97.3019 1144.17 98.3519C1144.07 99.3919 1143.9 100.062 1143.18 101.522C1142.46 102.972 1141.96 103.782 1140.57 105.602C1139.19 107.432 1138.35 108.542 1136.26 110.662C1134.16 112.772 1132.86 113.932 1130.1 116.202C1127.34 118.472 1125.65 119.752 1122.47 121.982C1119.3 124.212 1117.58 125.432 1114.23 127.342C1110.88 129.252 1108.98 130.132 1105.72 131.552C1102.47 132.962 1100.67 133.482 1097.97 134.432C1095.26 135.382 1094.04 135.702 1092.19 136.292C1090.34 136.882 1089.67 137.092 1088.73 137.402C1087.8 137.712 1087.77 137.842 1087.51 137.822C1087.24 137.812 1087.29 137.762 1087.39 137.312C1087.48 136.862 1087.6 136.532 1087.99 135.592C1088.39 134.642 1088.7 133.912 1089.37 132.592C1090.05 131.262 1090.36 130.372 1091.36 128.972C1092.35 127.582 1092.99 126.932 1094.35 125.622C1095.7 124.312 1096.55 123.552 1098.15 122.412C1099.75 121.262 1100.86 121.012 1102.36 119.892C1103.86 118.762 1104.83 118.222 1105.65 116.772C1106.48 115.312 1106.56 113.962 1106.49 112.612C1106.42 111.272 1106.29 110.452 1105.32 110.042C1104.36 109.642 1103.75 109.412 1101.67 110.582C1099.58 111.762 1098.51 113.262 1094.9 115.932C1091.3 118.592 1088.88 120.382 1083.65 123.912C1078.41 127.442 1075.16 129.642 1068.74 133.592C1062.32 137.542 1058.56 139.902 1051.54 143.652C1044.51 147.402 1040.59 149.472 1033.61 152.342C1026.62 155.212 1022.87 156.542 1016.6 158.012C1010.33 159.472 1007.04 159.902 1002.26 159.692C997.478 159.492 995.678 158.962 992.698 156.982C989.728 155.002 988.658 153.742 987.398 149.792C986.148 145.832 985.798 143.212 986.448 137.212C987.108 131.222 988.208 127.352 990.688 119.812C993.168 112.262 995.038 107.802 998.848 99.4819C1002.65 91.1719 1005.21 86.3919 1009.71 78.2319C1014.22 70.0619 1017 65.4719 1021.37 58.6719C1025.74 51.8719 1028.49 48.5419 1031.58 44.2319C1034.66 39.9319 1036.12 38.5819 1036.8 37.1419C1037.48 35.6919 1036.13 35.1319 1034.97 37.0119C1033.8 38.9019 1033.52 41.4819 1031 46.5619C1028.48 51.6419 1026.39 55.6119 1022.37 62.4219C1018.34 69.2319 1015.92 73.1519 1010.87 80.6219C1005.82 88.0819 1002.89 92.2119 997.118 99.7619C991.348 107.312 988.138 111.382 982.008 118.382C975.878 125.382 972.598 128.852 966.458 134.752C960.328 140.662 957.028 143.542 951.338 147.912C945.648 152.282 942.748 154.082 938.028 156.602C933.298 159.132 930.878 159.522 927.708 160.522C924.548 161.522 923.508 161.582 922.198 161.602C920.888 161.622 920.938 161.762 921.148 160.612C921.358 159.472 921.658 158.502 923.248 155.882C924.848 153.262 925.998 151.072 929.128 147.512C932.268 143.962 934.688 141.692 938.928 138.122C943.168 134.552 945.798 132.562 950.338 129.662C954.878 126.772 957.578 125.472 961.608 123.652C965.648 121.822 967.888 121.782 970.508 120.542C973.118 119.302 973.888 118.392 974.698 117.452C975.498 116.502 975.488 115.742 974.538 115.812C973.588 115.892 972.838 116.242 969.958 117.832C967.088 119.432 965.138 121.092 960.158 123.782C955.178 126.462 951.828 128.122 945.048 131.252C938.268 134.372 934.248 136.202 926.248 139.412C918.248 142.612 913.548 144.432 905.048 147.262C896.558 150.102 891.878 151.632 883.758 153.592C875.638 155.552 871.398 156.372 864.438 157.082C857.478 157.782 854.028 157.752 848.968 157.102C843.908 156.452 841.978 155.602 839.138 153.842C836.288 152.072 835.548 151.092 834.728 148.272C833.918 145.452 833.868 143.682 835.058 139.722C836.258 135.762 837.548 133.092 840.708 128.472C843.858 123.852 846.288 121.042 850.848 116.632C855.408 112.212 858.498 109.822 863.508 106.412C868.518 103.002 871.508 101.472 875.898 99.5719C880.288 97.6819 882.648 97.5719 885.448 96.9419C888.248 96.3219 888.928 96.2819 889.898 96.4419C890.868 96.5919 890.858 96.5719 890.308 97.7319C889.758 98.8819 889.278 99.8719 887.148 102.212C885.018 104.542 883.418 106.462 879.658 109.382C875.898 112.312 873.338 114.122 868.348 116.852C863.358 119.582 860.268 121.022 854.718 123.022C849.158 125.032 845.978 125.882 840.568 126.872C835.158 127.852 832.408 128.062 827.688 127.932C822.968 127.802 820.798 127.262 816.968 126.222C813.138 125.182 811.458 124.202 808.538 122.712C805.628 121.212 804.738 120.032 802.398 118.742C800.058 117.452 799.118 117.022 796.848 116.262C794.588 115.512 793.548 114.962 791.068 114.972C788.598 114.992 787.178 114.852 784.488 116.342C781.808 117.832 780.668 119.392 777.668 122.432C774.668 125.462 772.978 127.582 769.498 131.522C766.018 135.472 763.808 138.012 760.268 142.152C756.738 146.282 754.568 148.762 751.818 152.202C749.068 155.632 747.448 157.152 746.528 159.312C745.608 161.472 746.308 162.802 747.208 163.002C748.108 163.202 749.308 162.762 751.028 160.322C752.748 157.882 753.348 155.282 755.808 150.792C758.268 146.302 760.128 143.282 763.348 137.872C766.558 132.452 768.698 129.192 771.888 123.722C775.068 118.242 776.958 115.362 779.278 110.492C781.598 105.632 782.968 103.392 783.498 99.3919C784.028 95.3919 783.828 93.1319 781.928 90.4919C780.038 87.8419 777.968 86.9519 774.018 86.1619C770.078 85.3719 767.568 86.0019 762.218 86.5219C756.868 87.0519 753.758 87.5519 747.258 88.7819C740.748 90.0119 737.018 91.0219 729.678 92.6719C722.348 94.3319 718.148 95.3619 710.578 97.0519C702.998 98.7419 698.678 99.7219 691.808 101.122C684.948 102.512 681.368 103.192 676.248 104.032C671.128 104.872 668.948 104.572 666.228 105.342C663.508 106.102 663.308 106.822 662.668 107.872C662.028 108.912 662.088 109.742 663.038 110.582Z" fill="white" stroke="white"/>
<path d="M417.5 131C424.389 128.883 427.823 126.152 438.253 125.665C450.766 125.08 453.188 131.968 455.242 135.04C463.349 147.167 458.854 162.631 471.913 173.479C478.362 178.837 493.508 182.989 517.947 175.435C570.981 159.042 598.722 123.251 608.63 105.96C611.575 100.822 617.157 82.5708 590.966 87.0458C580.9 88.7656 572.847 93.3235 567.774 96.5463C554.568 104.937 545.995 114.029 541.944 121.95C540.912 123.969 538 129 538 130.5C538 132.02 538.987 131.986 540 131C541.541 129.5 541.623 128.567 542 127.5C543.14 124.276 543.412 120.232 544.072 117.08C546.296 106.46 546.384 96.2437 540.673 87.1156C539.658 85.4929 536.425 78.2703 526 80.5C517.567 82.3037 512.912 87.383 511.069 89.6727C502.845 99.8903 505.324 112.483 507.5 121.032C515 150.5 519.933 176.515 546 201.5C552.399 207.634 571.655 227.534 608.906 213.186C609.738 212.865 610.883 212.712 611.518 212.84C614.812 213.502 601.106 217.181 598.971 217.726C588.628 220.368 579.303 220.202 572.489 219.169C552.5 216.139 542.249 204.734 535.5 196.5C516.195 172.946 507.449 147.721 502.5 121.032C500.622 110.903 496.5 94.1506 515 82C531.126 71.4089 542.602 83.1911 544.544 86.2109C551.271 96.6748 550.159 108.714 546.925 121.032C546.574 122.369 545.013 130.936 541.041 132.135C532.935 134.58 537.05 124.642 537.408 123.829C541.426 114.709 550.792 101.687 567.774 92C576.372 87.0955 591.498 82.9117 603.38 84.3458C622.569 86.6617 615.719 100.172 611.016 107.998C600.674 125.208 572.457 159.611 520.773 175.884C490.379 185.453 473.126 179.65 466.344 172.823C455.84 162.247 458.964 148.343 451.984 136.914C450.508 134.497 447.947 125.849 435.988 127.127C431.755 127.579 424.067 132.254 420.5 133.921C418.084 135.051 415 131.768 417.5 131Z" fill="white"/>
</svg>
