<svg width="248" height="94" viewBox="0 0 248 94" fill="none" xmlns="http://www.w3.org/2000/svg">
<path d="M70.0001 11.0572C68.5001 10.8906 65.0001 11.5572 65.0001 15.5572C65.0001 20.5572 69.5275 22.5542 74 22.0573C78.5001 21.5572 83 18.0573 82.5 12.0573C82 6.05727 76.4457 2.21479 72.5001 1.55725C69.5001 1.05729 64.5001 1.55727 53.5001 8.05725C51.295 9.36023 40 17.0573 32 22.0573C31 22.8906 28.6 24.6573 27 25.0573C25 25.5573 17.5 26.5573 17.5 20.5573C17.5 15.7573 22.1667 15.5573 24.5 16.0573C27.5 16.0573 34.5125 19.9824 33.0001 29.0572C31.5001 38.0572 20.5 39.0573 18.5 39.0573C16.5 39.0573 0.999933 37.5573 1 20.5573C1.00007 3.02874 14.0001 0.557311 22.0001 1.05729C30.0001 1.55727 35.0001 2.05725 45.5001 17.0572C56.0001 32.0572 73.0001 65.5573 90.0001 79.0573C107 92.5573 118.5 92.5573 124 92.5573" stroke="#BD9C4E"/>
<path d="M178 11.0572C179.5 10.8906 183 11.5572 183 15.5572C183 20.5572 178.473 22.5542 174 22.0573C169.5 21.5572 165 18.0573 165.5 12.0573C166 6.05727 171.554 2.21479 175.5 1.55725C178.5 1.05729 183.5 1.55727 194.5 8.05725C196.705 9.36023 208 17.0573 216 22.0573C217 22.8906 219.4 24.6573 221 25.0573C223 25.5573 230.5 26.5573 230.5 20.5573C230.5 15.7573 225.833 15.5573 223.5 16.0573C220.5 16.0573 213.488 19.9824 215 29.0572C216.5 38.0572 227.5 39.0573 229.5 39.0573C231.5 39.0573 247 37.5573 247 20.5573C247 3.02874 234 0.557311 226 1.05729C218 1.55727 213 2.05725 202.5 17.0572C192 32.0572 175 65.5573 158 79.0573C141 92.5573 129.5 92.5573 124 92.5573" stroke="#BD9C4E"/>
</svg>
