<svg width="175" height="34" viewBox="0 0 175 34" fill="none" xmlns="http://www.w3.org/2000/svg">
<path d="M22.64 23.52C23.12 23.52 23.36 24.2267 23.36 25.64C23.36 27.9067 22.8667 29.72 21.88 31.08C20.92 32.44 19.5067 33.12 17.64 33.12C15.7733 33.12 14.3333 32.48 13.32 31.2C12.3333 29.92 11.84 28.1067 11.84 25.76V21.08C11.84 17.9067 11.04 16.32 9.44 16.32C8.02667 16.32 6.86667 17.04 5.96 18.48C5.05333 19.92 4.6 22.3333 4.6 25.72V32.56C4.33333 32.9333 3.86667 33.12 3.2 33.12C2.53333 33.12 2 32.92 1.6 32.52C1.2 32.0933 1 31.48 1 30.68V15.48C1.26667 15.1067 1.77333 14.92 2.52 14.92C3.90667 14.92 4.6 15.92 4.6 17.92C5.72 15.92 7.49333 14.92 9.92 14.92C11.6533 14.92 13.0267 15.4667 14.04 16.56C15.08 17.6533 15.6 19.2267 15.6 21.28V26.96C15.6 28.48 15.84 29.6267 16.32 30.4C16.8 31.1733 17.5067 31.56 18.44 31.56C19.4 31.56 20.24 30.9733 20.96 29.8C21.68 28.6 22.04 26.5867 22.04 23.76C22.0667 23.6 22.2667 23.52 22.64 23.52ZM32.8928 17.36C32.8928 16.56 33.1195 15.96 33.5728 15.56C34.0261 15.1333 34.5728 14.92 35.2128 14.92C35.8528 14.92 36.3595 15.1067 36.7328 15.48V26.96C36.7328 28.48 36.9728 29.6267 37.4528 30.4C37.9328 31.1733 38.5861 31.56 39.4128 31.56C40.2395 31.56 41.0395 31.08 41.8128 30.12C42.7195 28.9733 43.1728 26.8533 43.1728 23.76C43.1995 23.6 43.3995 23.52 43.7728 23.52C44.2528 23.52 44.4928 24.2267 44.4928 25.64C44.4928 27.9067 43.9995 29.72 43.0128 31.08C42.0528 32.44 40.6928 33.12 38.9328 33.12C36.1328 33.12 34.2928 31.8533 33.4128 29.32C32.3728 31.8533 30.4661 33.12 27.6928 33.12C26.0395 33.12 24.7061 32.6267 23.6928 31.64C22.6795 30.6267 22.1728 29.1867 22.1728 27.32V17.36C22.1728 16.56 22.3728 15.96 22.7728 15.56C23.1728 15.1333 23.6795 14.92 24.2928 14.92C24.9061 14.92 25.3995 15.1067 25.7728 15.48V26.96C25.7728 30.1333 26.5728 31.72 28.1728 31.72C29.3728 31.72 30.4528 31 31.4128 29.56C32.3995 28.12 32.8928 26.0933 32.8928 23.48V17.36ZM43.2266 11.44C43.2266 10.64 43.4266 10.04 43.8266 9.64C44.2266 9.21333 44.7332 9 45.3466 9C45.9599 9 46.4532 9.18667 46.8266 9.56V15.48H52.3066C52.8666 15.48 53.2266 15.5867 53.3866 15.8C53.5732 16.0133 53.6666 16.3733 53.6666 16.88H46.8266V26.96C46.8266 28.4267 47.2399 29.56 48.0666 30.36C48.9199 31.16 49.8932 31.56 50.9866 31.56C52.6399 31.56 53.8532 30.9467 54.6266 29.72C55.3999 28.4933 55.7866 26.5067 55.7866 23.76C55.8399 23.6 56.0399 23.52 56.3866 23.52C56.8666 23.52 57.1066 24.2267 57.1066 25.64C57.1066 27.8 56.5599 29.5867 55.4666 31C54.3999 32.4133 52.7466 33.12 50.5066 33.12C48.2666 33.12 46.4932 32.5333 45.1866 31.36C43.8799 30.1867 43.2266 28.44 43.2266 26.12V11.44ZM63.2828 24.96C62.2161 24.5867 61.1495 24.2 60.0828 23.8C59.0428 23.3733 58.1628 22.7733 57.4428 22C56.7228 21.2267 56.3628 20.24 56.3628 19.04C56.3628 17.8133 56.9228 16.8267 58.0428 16.08C59.1628 15.3067 60.7895 14.92 62.9228 14.92C65.0828 14.92 66.7628 15.2933 67.9628 16.04C69.1895 16.7867 69.8028 17.6533 69.8028 18.64C69.8028 19.12 69.6161 19.5067 69.2428 19.8C68.8961 20.0933 68.5495 20.24 68.2028 20.24C67.5361 20.24 67.0961 20.08 66.8828 19.76C67.0428 19.5733 67.1228 19.2133 67.1228 18.68C67.1228 18.12 66.7095 17.6133 65.8828 17.16C65.0561 16.7067 64.1361 16.48 63.1228 16.48C62.1095 16.48 61.2695 16.6667 60.6028 17.04C59.9361 17.4133 59.6028 17.9867 59.6028 18.76C59.6028 19.5067 59.9761 20.16 60.7228 20.72C61.4961 21.28 62.4161 21.7467 63.4828 22.12C64.5761 22.4933 65.6561 22.8933 66.7228 23.32C67.8161 23.7467 68.7361 24.36 69.4828 25.16C70.2561 25.9333 70.6428 26.8933 70.6428 28.04C70.6428 29.7467 69.8961 31.0267 68.4028 31.88C66.9361 32.7067 64.9895 33.12 62.5628 33.12C60.1628 33.12 58.2028 32.4267 56.6828 31.04C55.1895 29.6267 54.4428 27.88 54.4428 25.8C54.4428 25.0533 54.5895 24.4667 54.8828 24.04C55.1761 23.6133 55.5095 23.4 55.8828 23.4C56.5761 23.4 56.9761 23.52 57.0828 23.76L57.1628 23.88C57.0028 24.28 56.9228 24.7733 56.9228 25.36C56.9228 27.1467 57.4428 28.6267 58.4828 29.8C59.5228 30.9733 60.9628 31.56 62.8028 31.56C65.6295 31.56 67.0561 30.56 67.0828 28.56C67.0828 27.04 65.8161 25.84 63.2828 24.96ZM72.9922 11.44C72.9922 10.64 73.1922 10.04 73.5922 9.64C73.9922 9.21333 74.4989 9 75.1122 9C75.7255 9 76.2189 9.18667 76.5922 9.56V15.48H82.0722C82.6322 15.48 82.9922 15.5867 83.1522 15.8C83.3389 16.0133 83.4322 16.3733 83.4322 16.88H76.5922V26.96C76.5922 28.4267 77.0055 29.56 77.8322 30.36C78.6855 31.16 79.6589 31.56 80.7522 31.56C82.4055 31.56 83.6189 30.9467 84.3922 29.72C85.1655 28.4933 85.5522 26.5067 85.5522 23.76C85.6055 23.6 85.8055 23.52 86.1522 23.52C86.6322 23.52 86.8722 24.2267 86.8722 25.64C86.8722 27.8 86.3255 29.5867 85.2322 31C84.1655 32.4133 82.5122 33.12 80.2722 33.12C78.0322 33.12 76.2589 32.5333 74.9522 31.36C73.6455 30.1867 72.9922 28.44 72.9922 26.12V11.44ZM85.9284 11C85.4751 10.5467 85.2484 9.98667 85.2484 9.32C85.2484 8.65333 85.4751 8.09333 85.9284 7.64C86.3818 7.16 86.9418 6.92 87.6084 6.92C88.2751 6.92 88.8351 7.16 89.2884 7.64C89.7684 8.09333 90.0084 8.65333 90.0084 9.32C90.0084 9.98667 89.7684 10.5467 89.2884 11C88.8351 11.4533 88.2751 11.68 87.6084 11.68C86.9418 11.68 86.3818 11.4533 85.9284 11ZM85.7684 17.36C85.7684 16.56 85.9684 15.96 86.3684 15.56C86.7684 15.1333 87.2751 14.92 87.8884 14.92C88.5018 14.92 88.9951 15.1067 89.3684 15.48V26.96C89.3684 28.48 89.6618 29.6267 90.2484 30.4C90.8351 31.1733 91.6351 31.56 92.6484 31.56C93.6618 31.56 94.6084 30.9467 95.4884 29.72C96.3684 28.4933 96.8084 26.5067 96.8084 23.76C96.8618 23.6 97.0618 23.52 97.4084 23.52C97.8884 23.52 98.1284 24.2267 98.1284 25.64C98.1284 27.6933 97.5684 29.4533 96.4484 30.92C95.3284 32.3867 93.9018 33.12 92.1684 33.12C90.0084 33.12 88.3951 32.48 87.3284 31.2C86.2884 29.92 85.7684 28.1067 85.7684 25.76V17.36ZM113.658 24.8C114.218 24.8 114.498 25.1867 114.498 25.96C114.498 26.7333 114.338 27.5067 114.018 28.28C113.698 29.0533 113.232 29.8133 112.618 30.56C112.032 31.3067 111.192 31.92 110.098 32.4C109.032 32.88 107.818 33.12 106.458 33.12C103.472 33.12 101.125 32.3733 99.4184 30.88C97.7384 29.36 96.8984 27.1467 96.8984 24.24C96.8984 21.3067 97.6451 19.0267 99.1384 17.4C100.632 15.7467 102.538 14.92 104.858 14.92C106.538 14.92 107.765 15.3733 108.538 16.28C109.312 17.16 109.698 18.2133 109.698 19.44C109.698 20.1067 109.498 20.64 109.098 21.04C108.698 21.44 108.312 21.64 107.938 21.64C107.245 21.64 106.792 21.48 106.578 21.16C106.738 20.76 106.818 20.1867 106.818 19.44C106.818 18.6933 106.565 18.0133 106.058 17.4C105.552 16.7867 104.938 16.48 104.218 16.48C102.965 16.48 102.058 17.0933 101.498 18.32C100.965 19.5467 100.698 21.48 100.698 24.12C100.698 26.7333 101.205 28.6267 102.218 29.8C103.258 30.9733 104.698 31.56 106.538 31.56C108.378 31.56 109.925 31 111.178 29.88C112.432 28.7333 113.058 27.12 113.058 25.04C113.085 24.88 113.285 24.8 113.658 24.8ZM134.469 23.52C134.949 23.52 135.189 24.2267 135.189 25.64C135.189 27.8533 134.683 29.6533 133.669 31.04C132.656 32.4267 131.256 33.12 129.469 33.12C127.683 33.12 126.163 32.5333 124.909 31.36C123.656 30.16 122.869 28.72 122.549 27.04C120.763 27.7867 118.829 28.2133 116.749 28.32V32.56C116.483 32.9333 116.016 33.12 115.349 33.12C114.683 33.12 114.149 32.92 113.749 32.52C113.349 32.0933 113.149 31.48 113.149 30.68V10.64C113.149 7.17333 113.483 4.66667 114.149 3.12C114.816 1.54666 116.096 0.759998 117.989 0.759998C119.003 0.759998 119.789 1.18666 120.349 2.04C120.909 2.89333 121.189 4.10667 121.189 5.68C121.189 8.53333 119.709 11.44 116.749 14.4V18.24C117.949 16.0267 119.869 14.92 122.509 14.92C124.189 14.92 125.536 15.36 126.549 16.24C127.589 17.12 128.109 18.32 128.109 19.84C128.109 21.8933 127.229 23.6933 125.469 25.24C125.603 26.8667 126.096 28.3333 126.949 29.64C127.803 30.92 128.883 31.56 130.189 31.56C131.203 31.56 132.069 30.9333 132.789 29.68C133.509 28.4 133.869 26.4267 133.869 23.76C133.896 23.6 134.096 23.52 134.469 23.52ZM124.589 19.88C124.589 18.76 124.349 17.8933 123.869 17.28C123.389 16.64 122.776 16.32 122.029 16.32C120.563 16.32 119.309 17.1067 118.269 18.68C117.256 20.2533 116.749 22.9467 116.749 26.76C119.043 26.52 120.923 25.7333 122.389 24.4C123.856 23.04 124.589 21.5333 124.589 19.88ZM116.749 12.48C118.563 10.1333 119.469 7.85333 119.469 5.64C119.469 3.42667 118.989 2.32 118.029 2.32C117.496 2.32 117.149 2.93333 116.989 4.16C116.829 5.38667 116.749 8.16 116.749 12.48Z" fill="black"/>
<path d="M21.88 31.08L21.4753 30.7864L21.4715 30.7917L21.88 31.08ZM13.32 31.2L12.924 31.5053L12.928 31.5104L13.32 31.2ZM5.96 18.48L6.38312 18.7464L5.96 18.48ZM4.6 32.56L5.00687 32.8506L5.1 32.7202V32.56H4.6ZM1.6 32.52L1.23523 32.862L1.24075 32.8679L1.24645 32.8736L1.6 32.52ZM1 15.48L0.593133 15.1894L0.5 15.3198V15.48H1ZM4.6 17.92H4.1V19.8362L5.03625 18.1643L4.6 17.92ZM14.04 16.56L13.6733 16.8999L13.6777 16.9046L14.04 16.56ZM16.32 30.4L16.7448 30.1363L16.32 30.4ZM20.96 29.8L21.3862 30.0615L21.3887 30.0572L20.96 29.8ZM22.04 23.76L21.5468 23.6778L21.54 23.7186V23.76H22.04ZM22.64 24.02C22.5533 24.02 22.6105 23.928 22.7066 24.2108C22.7996 24.4848 22.86 24.9483 22.86 25.64H23.86C23.86 24.9184 23.8004 24.3219 23.6534 23.8892C23.5095 23.4654 23.2067 23.02 22.64 23.02V24.02ZM22.86 25.64C22.86 27.8375 22.3817 29.5371 21.4753 30.7864L22.2847 31.3736C23.3517 29.9029 23.86 27.9759 23.86 25.64H22.86ZM21.4715 30.7917C20.6177 32.0013 19.3671 32.62 17.64 32.62V33.62C19.6463 33.62 21.2223 32.8787 22.2885 31.3683L21.4715 30.7917ZM17.64 32.62C15.9014 32.62 14.6161 32.0317 13.712 30.8896L12.928 31.5104C14.0505 32.9283 15.6453 33.62 17.64 33.62V32.62ZM13.716 30.8947C12.8212 29.734 12.34 28.0444 12.34 25.76H11.34C11.34 28.1689 11.8454 30.106 12.924 31.5053L13.716 30.8947ZM12.34 25.76V21.08H11.34V25.76H12.34ZM12.34 21.08C12.34 19.4675 12.1394 18.1832 11.6865 17.2849C11.4564 16.8286 11.1536 16.4569 10.7657 16.2004C10.3749 15.942 9.92664 15.82 9.44 15.82V16.82C9.75336 16.82 10.0051 16.8963 10.2143 17.0346C10.4264 17.1748 10.6236 17.3981 10.7935 17.7351C11.1406 18.4234 11.34 19.5192 11.34 21.08H12.34ZM9.44 15.82C7.8178 15.82 6.51343 16.6626 5.53688 18.2136L6.38312 18.7464C7.21991 17.4174 8.23554 16.82 9.44 16.82V15.82ZM5.53688 18.2136C4.55062 19.78 4.1 22.316 4.1 25.72H5.1C5.1 22.3507 5.55604 20.06 6.38312 18.7464L5.53688 18.2136ZM4.1 25.72V32.56H5.1V25.72H4.1ZM4.19313 32.2694C4.05776 32.4589 3.78268 32.62 3.2 32.62V33.62C3.95066 33.62 4.60891 33.4078 5.00687 32.8506L4.19313 32.2694ZM3.2 32.62C2.64046 32.62 2.24319 32.4561 1.95355 32.1664L1.24645 32.8736C1.75681 33.3839 2.42621 33.62 3.2 33.62V32.62ZM1.96477 32.178C1.67938 31.8736 1.5 31.4003 1.5 30.68H0.5C0.5 31.5597 0.720616 32.313 1.23523 32.862L1.96477 32.178ZM1.5 30.68V15.48H0.5V30.68H1.5ZM1.40687 15.7706C1.53284 15.5942 1.83247 15.42 2.52 15.42V14.42C1.71419 14.42 1.00049 14.6191 0.593133 15.1894L1.40687 15.7706ZM2.52 15.42C3.0759 15.42 3.43001 15.61 3.6691 15.9549C3.93121 16.3329 4.1 16.9623 4.1 17.92H5.1C5.1 16.8777 4.92212 16.0071 4.4909 15.3851C4.03666 14.73 3.35077 14.42 2.52 14.42V15.42ZM5.03625 18.1643C6.06161 16.3333 7.66123 15.42 9.92 15.42V14.42C7.32544 14.42 5.37839 15.5067 4.16375 17.6757L5.03625 18.1643ZM9.92 15.42C11.5389 15.42 12.7702 15.9255 13.6733 16.8999L14.4067 16.2201C13.2831 15.0078 11.7677 14.42 9.92 14.42V15.42ZM13.6777 16.9046C14.6014 17.8757 15.1 19.3078 15.1 21.28H16.1C16.1 19.1455 15.5586 17.431 14.4023 16.2154L13.6777 16.9046ZM15.1 21.28V26.96H16.1V21.28H15.1ZM15.1 26.96C15.1 28.5175 15.3432 29.7744 15.8952 30.6637L16.7448 30.1363C16.3368 29.4789 16.1 28.4425 16.1 26.96H15.1ZM15.8952 30.6637C16.4692 31.5885 17.3391 32.06 18.44 32.06V31.06C17.6743 31.06 17.1308 30.7582 16.7448 30.1363L15.8952 30.6637ZM18.44 32.06C19.643 32.06 20.6184 31.3126 21.3862 30.0615L20.5338 29.5385C19.8616 30.634 19.157 31.06 18.44 31.06V32.06ZM21.3887 30.0572C22.1829 28.7336 22.54 26.602 22.54 23.76H21.54C21.54 26.5713 21.1771 28.4664 20.5313 29.5428L21.3887 30.0572ZM22.5332 23.8422C22.5232 23.902 22.4946 23.9574 22.456 23.9983C22.4218 24.0345 22.3934 24.0452 22.3957 24.0442C22.3979 24.0433 22.4172 24.0364 22.4616 24.0302C22.5049 24.0242 22.5635 24.02 22.64 24.02V23.02C22.4294 23.02 22.2115 23.0409 22.0243 23.1158C21.8222 23.1966 21.5981 23.37 21.5468 23.6778L22.5332 23.8422ZM33.5728 15.56L33.9036 15.9349L33.9096 15.9296L33.9155 15.9241L33.5728 15.56ZM36.7328 15.48H37.2328V15.2729L37.0864 15.1264L36.7328 15.48ZM37.4528 30.4L37.8776 30.1363L37.4528 30.4ZM41.8128 30.12L42.2022 30.4337L42.205 30.4301L41.8128 30.12ZM43.1728 23.76L42.6796 23.6778L42.6728 23.7186V23.76H43.1728ZM43.0128 31.08L42.6081 30.7864L42.6043 30.7917L43.0128 31.08ZM33.4128 29.32L33.8851 29.1559L33.4518 27.9085L32.9503 29.1301L33.4128 29.32ZM23.6928 31.64L23.3392 31.9936L23.344 31.9982L23.6928 31.64ZM22.7728 15.56L23.1264 15.9136L23.1321 15.9079L23.1376 15.902L22.7728 15.56ZM25.7728 15.48H26.2728V15.2729L26.1264 15.1264L25.7728 15.48ZM31.4128 29.56L31.0003 29.2774L30.9968 29.2826L31.4128 29.56ZM33.3928 17.36C33.3928 16.6544 33.5898 16.2118 33.9036 15.9349L33.242 15.1851C32.6491 15.7082 32.3928 16.4656 32.3928 17.36H33.3928ZM33.9155 15.9241C34.2732 15.5874 34.6962 15.42 35.2128 15.42V14.42C34.4494 14.42 33.7791 14.6793 33.2301 15.1959L33.9155 15.9241ZM35.2128 15.42C35.7502 15.42 36.119 15.5733 36.3793 15.8336L37.0864 15.1264C36.6 14.6401 35.9554 14.42 35.2128 14.42V15.42ZM36.2328 15.48V26.96H37.2328V15.48H36.2328ZM36.2328 26.96C36.2328 28.5175 36.476 29.7744 37.028 30.6637L37.8776 30.1363C37.4696 29.4789 37.2328 28.4425 37.2328 26.96H36.2328ZM37.028 30.6637C37.5882 31.5662 38.3933 32.06 39.4128 32.06V31.06C38.779 31.06 38.2774 30.7805 37.8776 30.1363L37.028 30.6637ZM39.4128 32.06C40.4534 32.06 41.3818 31.4521 42.2022 30.4337L41.4234 29.8063C40.6972 30.7079 40.0256 31.06 39.4128 31.06V32.06ZM42.205 30.4301C43.2259 29.139 43.6728 26.8631 43.6728 23.76H42.6728C42.6728 26.8435 42.213 28.8077 41.4206 29.8099L42.205 30.4301ZM43.666 23.8422C43.656 23.902 43.6274 23.9574 43.5888 23.9983C43.5546 24.0345 43.5262 24.0452 43.5285 24.0442C43.5307 24.0433 43.55 24.0364 43.5944 24.0302C43.6377 24.0242 43.6964 24.02 43.7728 24.02V23.02C43.5623 23.02 43.3443 23.0409 43.1571 23.1158C42.955 23.1966 42.7309 23.37 42.6796 23.6778L43.666 23.8422ZM43.7728 24.02C43.6862 24.02 43.7433 23.928 43.8394 24.2108C43.9324 24.4848 43.9928 24.9483 43.9928 25.64H44.9928C44.9928 24.9184 44.9332 24.3219 44.7863 23.8892C44.6423 23.4654 44.3395 23.02 43.7728 23.02V24.02ZM43.9928 25.64C43.9928 27.8375 43.5145 29.5371 42.6081 30.7864L43.4175 31.3736C44.4845 29.9029 44.9928 27.9759 44.9928 25.64H43.9928ZM42.6043 30.7917C41.7442 32.0102 40.5413 32.62 38.9328 32.62V33.62C40.8443 33.62 42.3615 32.8698 43.4213 31.3683L42.6043 30.7917ZM38.9328 32.62C37.6083 32.62 36.554 32.321 35.7363 31.7582C34.9205 31.1965 34.2974 30.3427 33.8851 29.1559L32.9405 29.4841C33.4083 30.8306 34.1451 31.8768 35.1693 32.5818C36.1917 33.2857 37.4573 33.62 38.9328 33.62V32.62ZM32.9503 29.1301C32.4606 30.3228 31.7811 31.1856 30.9261 31.7535C30.0707 32.3218 29.0021 32.62 27.6928 32.62V33.62C29.1569 33.62 30.4282 33.2849 31.4795 32.5865C32.5312 31.8878 33.325 30.8505 33.8754 29.5099L32.9503 29.1301ZM27.6928 32.62C26.1461 32.62 24.9459 32.1623 24.0416 31.2818L23.344 31.9982C24.4664 33.0911 25.9328 33.62 27.6928 33.62V32.62ZM24.0464 31.2864C23.1527 30.3928 22.6728 29.0959 22.6728 27.32H21.6728C21.6728 29.2775 22.2062 30.8605 23.3393 31.9936L24.0464 31.2864ZM22.6728 27.32V17.36H21.6728V27.32H22.6728ZM22.6728 17.36C22.6728 16.6371 22.8532 16.1867 23.1264 15.9136L22.4193 15.2064C21.8924 15.7333 21.6728 16.4829 21.6728 17.36H22.6728ZM23.1376 15.902C23.438 15.5815 23.8101 15.42 24.2928 15.42V14.42C23.5488 14.42 22.9076 14.6851 22.408 15.218L23.1376 15.902ZM24.2928 15.42C24.7967 15.42 25.1549 15.5692 25.4193 15.8336L26.1264 15.1264C25.6441 14.6441 25.0156 14.42 24.2928 14.42V15.42ZM25.2728 15.48V26.96H26.2728V15.48H25.2728ZM25.2728 26.96C25.2728 28.5725 25.4734 29.8568 25.9264 30.7551C26.1564 31.2114 26.4592 31.5831 26.8471 31.8396C27.2379 32.098 27.6862 32.22 28.1728 32.22V31.22C27.8595 31.22 27.6077 31.1437 27.3986 31.0054C27.1865 30.8652 26.9892 30.6419 26.8193 30.3049C26.4722 29.6166 26.2728 28.5208 26.2728 26.96H25.2728ZM28.1728 32.22C29.6063 32.22 30.8202 31.3503 31.8288 29.8373L30.9968 29.2826C30.0854 30.6497 29.1393 31.22 28.1728 31.22V32.22ZM31.8253 29.8426C32.8908 28.2875 33.3928 26.147 33.3928 23.48H32.3928C32.3928 26.0397 31.9081 27.9525 31.0003 29.2774L31.8253 29.8426ZM33.3928 23.48V17.36H32.3928V23.48H33.3928ZM43.8266 9.64L44.1801 9.99355L44.1858 9.98785L44.1913 9.98197L43.8266 9.64ZM46.8266 9.56H47.3266V9.35289L47.1801 9.20645L46.8266 9.56ZM46.8266 15.48H46.3266V15.98H46.8266V15.48ZM53.3866 15.8L52.9866 16.1L52.9979 16.1151L53.0103 16.1293L53.3866 15.8ZM53.6666 16.88V17.38H54.1666V16.88H53.6666ZM46.8266 16.88V16.38H46.3266V16.88H46.8266ZM48.0666 30.36L47.7188 30.7193L47.7246 30.7248L48.0666 30.36ZM54.6266 29.72L55.0495 29.9866L54.6266 29.72ZM55.7866 23.76L55.3122 23.6019L55.2866 23.6789V23.76H55.7866ZM55.4666 31L55.0711 30.694L55.0675 30.6988L55.4666 31ZM45.1866 31.36L45.5206 30.988L45.1866 31.36ZM43.7266 11.44C43.7266 10.7171 43.907 10.2667 44.1801 9.99355L43.473 9.28645C42.9462 9.81329 42.7266 10.5629 42.7266 11.44H43.7266ZM44.1913 9.98197C44.4917 9.66152 44.8639 9.5 45.3466 9.5V8.5C44.6026 8.5 43.9614 8.76514 43.4618 9.29803L44.1913 9.98197ZM45.3466 9.5C45.8505 9.5 46.2087 9.6492 46.473 9.91355L47.1801 9.20645C46.6978 8.72413 46.0693 8.5 45.3466 8.5V9.5ZM46.3266 9.56V15.48H47.3266V9.56H46.3266ZM46.8266 15.98H52.3066V14.98H46.8266V15.98ZM52.3066 15.98C52.5596 15.98 52.7373 16.0047 52.8545 16.0394C52.9724 16.0743 52.9926 16.1081 52.9866 16.1L53.7866 15.5C53.6205 15.2786 53.3807 15.1523 53.1386 15.0806C52.8958 15.0087 52.6135 14.98 52.3066 14.98V15.98ZM53.0103 16.1293C53.0747 16.2028 53.1666 16.4087 53.1666 16.88H54.1666C54.1666 16.338 54.0718 15.8238 53.7629 15.4707L53.0103 16.1293ZM53.6666 16.38H46.8266V17.38H53.6666V16.38ZM46.3266 16.88V26.96H47.3266V16.88H46.3266ZM46.3266 26.96C46.3266 28.5228 46.7698 29.8009 47.7189 30.7193L48.4143 30.0007C47.71 29.3191 47.3266 28.3305 47.3266 26.96H46.3266ZM47.7246 30.7248C48.6635 31.605 49.7568 32.06 50.9866 32.06V31.06C50.0297 31.06 49.1763 30.715 48.4085 29.9952L47.7246 30.7248ZM50.9866 32.06C52.7832 32.06 54.1704 31.3811 55.0495 29.9866L54.2036 29.4534C53.536 30.5123 52.4966 31.06 50.9866 31.06V32.06ZM55.0495 29.9866C55.901 28.636 56.2866 26.5298 56.2866 23.76H55.2866C55.2866 26.4835 54.8988 28.3507 54.2036 29.4534L55.0495 29.9866ZM56.2609 23.9181C56.2473 23.9588 56.2238 23.9935 56.1979 24.018C56.1744 24.0403 56.1576 24.0461 56.1623 24.0442C56.1673 24.0422 56.1866 24.0356 56.2265 24.0297C56.2657 24.024 56.3183 24.02 56.3866 24.02V23.02C56.1837 23.02 55.9749 23.0421 55.7909 23.1158C55.5951 23.1941 55.3977 23.3455 55.3122 23.6019L56.2609 23.9181ZM56.3866 24.02C56.2999 24.02 56.3571 23.928 56.4531 24.2108C56.5462 24.4848 56.6066 24.9483 56.6066 25.64H57.6066C57.6066 24.9184 57.547 24.3219 57.4 23.8892C57.2561 23.4654 56.9532 23.02 56.3866 23.02V24.02ZM56.6066 25.64C56.6066 27.7131 56.0834 29.3855 55.0711 30.6941L55.862 31.3059C57.0364 29.7879 57.6066 27.8869 57.6066 25.64H56.6066ZM55.0675 30.6988C54.1199 31.9544 52.6356 32.62 50.5066 32.62V33.62C52.8575 33.62 54.6799 32.8723 55.8657 31.3012L55.0675 30.6988ZM50.5066 32.62C48.3548 32.62 46.7124 32.0581 45.5206 30.988L44.8525 31.732C46.2741 33.0085 48.1783 33.62 50.5066 33.62V32.62ZM45.5206 30.988C44.3507 29.9374 43.7266 28.3461 43.7266 26.12H42.7266C42.7266 28.5339 43.4091 30.4359 44.8525 31.732L45.5206 30.988ZM43.7266 26.12V11.44H42.7266V26.12H43.7266ZM63.2828 24.96L63.1176 25.4319L63.1187 25.4323L63.2828 24.96ZM60.0828 23.8L59.893 24.2626L59.9001 24.2655L59.9072 24.2682L60.0828 23.8ZM57.4428 22L57.0769 22.3407L57.4428 22ZM58.0428 16.08L58.3202 16.4961L58.3269 16.4914L58.0428 16.08ZM67.9628 16.04L67.6986 16.4645L67.7028 16.4671L67.9628 16.04ZM69.2428 19.8L68.9339 19.4068L68.9268 19.4124L68.9198 19.4183L69.2428 19.8ZM66.8828 19.76L66.5032 19.4346L66.2567 19.7222L66.4668 20.0373L66.8828 19.76ZM65.8828 17.16L66.1232 16.7216L65.8828 17.16ZM60.6028 17.04L60.8471 17.4763L60.6028 17.04ZM60.7228 20.72L60.4228 21.1201L60.4296 21.125L60.7228 20.72ZM63.4828 22.12L63.3176 22.5919L63.3212 22.5932L63.4828 22.12ZM66.7228 23.32L66.5371 23.7843L66.541 23.7858L66.7228 23.32ZM69.4828 25.16L69.1173 25.5012L69.1232 25.5075L69.1293 25.5136L69.4828 25.16ZM68.4028 31.88L68.6483 32.3156L68.6509 32.3141L68.4028 31.88ZM56.6828 31.04L56.3391 31.4032L56.3458 31.4094L56.6828 31.04ZM54.8828 24.04L55.2948 24.3233L54.8828 24.04ZM57.0828 23.76L56.6259 23.9631L56.6432 24.0019L56.6668 24.0373L57.0828 23.76ZM57.1628 23.88L57.6271 24.0657L57.7247 23.8215L57.5788 23.6026L57.1628 23.88ZM58.4828 29.8L58.857 29.4683L58.4828 29.8ZM67.0828 28.56L67.5828 28.5667V28.56H67.0828ZM63.448 24.4881C62.3848 24.116 61.3216 23.7306 60.2584 23.3318L59.9072 24.2682C60.9773 24.6694 62.0475 25.0574 63.1176 25.4319L63.448 24.4881ZM60.2726 23.3374C59.2951 22.9364 58.4764 22.3764 57.8088 21.6593L57.0769 22.3407C57.8492 23.1703 58.7906 23.8103 59.893 24.2626L60.2726 23.3374ZM57.8088 21.6593C57.1867 20.9912 56.8628 20.132 56.8628 19.04H55.8628C55.8628 20.348 56.2589 21.4622 57.0769 22.3407L57.8088 21.6593ZM56.8628 19.04C56.8628 17.9988 57.3233 17.1606 58.3202 16.496L57.7655 15.664C56.5223 16.4927 55.8628 17.6278 55.8628 19.04H56.8628ZM58.3269 16.4914C59.3283 15.8 60.8377 15.42 62.9228 15.42V14.42C60.7413 14.42 58.9974 14.8133 57.7587 15.6686L58.3269 16.4914ZM62.9228 15.42C65.0351 15.42 66.6094 15.7867 67.6987 16.4645L68.227 15.6155C66.9163 14.7999 65.1305 14.42 62.9228 14.42V15.42ZM67.7028 16.4671C68.8544 17.1681 69.3028 17.8998 69.3028 18.64H70.3028C70.3028 17.4069 69.5245 16.4053 68.2228 15.6129L67.7028 16.4671ZM69.3028 18.64C69.3028 18.9685 69.1851 19.2095 68.9339 19.4068L69.5517 20.1932C70.0472 19.8038 70.3028 19.2715 70.3028 18.64H69.3028ZM68.9198 19.4183C68.6351 19.6593 68.3987 19.74 68.2028 19.74V20.74C68.7003 20.74 69.1572 20.5274 69.5658 20.1817L68.9198 19.4183ZM68.2028 19.74C67.5815 19.74 67.3678 19.5861 67.2988 19.4826L66.4668 20.0373C66.8245 20.5739 67.4908 20.74 68.2028 20.74V19.74ZM67.2624 20.0854C67.416 19.9063 67.5013 19.6817 67.5509 19.4585C67.6015 19.2309 67.6228 18.9685 67.6228 18.68H66.6228C66.6228 18.9248 66.6042 19.1091 66.5747 19.2415C66.5443 19.3783 66.5097 19.427 66.5032 19.4346L67.2624 20.0854ZM67.6228 18.68C67.6228 17.8365 66.9958 17.2001 66.1232 16.7216L65.6424 17.5984C66.4231 18.0266 66.6228 18.4035 66.6228 18.68H67.6228ZM66.1232 16.7216C65.2174 16.2248 64.2137 15.98 63.1228 15.98V16.98C64.0586 16.98 64.8949 17.1885 65.6424 17.5984L66.1232 16.7216ZM63.1228 15.98C62.0509 15.98 61.1203 16.1772 60.3585 16.6037L60.8471 17.4763C61.4187 17.1562 62.1681 16.98 63.1228 16.98V15.98ZM60.3585 16.6037C59.9592 16.8274 59.6387 17.1235 59.4206 17.4987C59.2026 17.8735 59.1028 18.2999 59.1028 18.76H60.1028C60.1028 18.4468 60.1697 18.1998 60.2851 18.0013C60.4003 17.8031 60.5798 17.626 60.8471 17.4763L60.3585 16.6037ZM59.1028 18.76C59.1028 19.7031 59.5852 20.4918 60.4228 21.12L61.0228 20.32C60.3671 19.8282 60.1028 19.3102 60.1028 18.76H59.1028ZM60.4296 21.125C61.2485 21.718 62.2134 22.2054 63.3176 22.5919L63.648 21.6481C62.6189 21.2879 61.7438 20.842 61.0161 20.315L60.4296 21.125ZM63.3212 22.5932C64.4065 22.9638 65.4785 23.3608 66.5371 23.7842L66.9085 22.8558C65.8338 22.4259 64.7458 22.0229 63.6444 21.6468L63.3212 22.5932ZM66.541 23.7858C67.5697 24.1872 68.4254 24.7599 69.1173 25.5012L69.8483 24.8188C69.0469 23.9601 68.0626 23.3061 66.9046 22.8542L66.541 23.7858ZM69.1293 25.5136C69.8039 26.1882 70.1428 27.0188 70.1428 28.04H71.1428C71.1428 26.7679 70.7084 25.6785 69.8364 24.8064L69.1293 25.5136ZM70.1428 28.04C70.1428 29.5655 69.4938 30.6807 68.1547 31.4459L68.6509 32.3141C70.2985 31.3726 71.1428 29.9278 71.1428 28.04H70.1428ZM68.1573 31.4444C66.7915 32.2143 64.9391 32.62 62.5628 32.62V33.62C65.0399 33.62 67.0808 33.1991 68.6483 32.3156L68.1573 31.4444ZM62.5628 32.62C60.2654 32.62 58.4326 31.9595 57.0198 30.6706L56.3458 31.4094C57.9731 32.8939 60.0602 33.62 62.5628 33.62V32.62ZM57.0265 30.6769C55.6343 29.3592 54.9428 27.7444 54.9428 25.8H53.9428C53.9428 28.0156 54.7447 29.8941 56.3391 31.4031L57.0265 30.6769ZM54.9428 25.8C54.9428 25.1117 55.079 24.6372 55.2948 24.3233L54.4708 23.7567C54.1 24.2961 53.9428 24.9949 53.9428 25.8H54.9428ZM55.2948 24.3233C55.5341 23.9753 55.7329 23.9 55.8828 23.9V22.9C55.286 22.9 54.8182 23.2514 54.4708 23.7567L55.2948 24.3233ZM55.8828 23.9C56.2084 23.9 56.4263 23.9291 56.5591 23.9689C56.7009 24.0115 56.6593 24.0381 56.6259 23.9631L57.5397 23.5569C57.3997 23.2419 57.1047 23.0885 56.8465 23.0111C56.5793 22.9309 56.2506 22.9 55.8828 22.9V23.9ZM56.6668 24.0373L56.7468 24.1573L57.5788 23.6026L57.4988 23.4827L56.6668 24.0373ZM56.6986 23.6943C56.5081 24.1705 56.4228 24.7313 56.4228 25.36H57.4228C57.4228 24.8154 57.4975 24.3895 57.6271 24.0657L56.6986 23.6943ZM56.4228 25.36C56.4228 27.2507 56.9763 28.8541 58.1086 30.1317L58.857 29.4683C57.9094 28.3992 57.4228 27.0427 57.4228 25.36H56.4228ZM58.1086 30.1317C59.2603 31.4309 60.847 32.06 62.8028 32.06V31.06C61.0786 31.06 59.7854 30.5158 58.857 29.4683L58.1086 30.1317ZM62.8028 32.06C64.2604 32.06 65.4447 31.8048 66.2798 31.2194C67.1456 30.6126 67.5677 29.7 67.5828 28.5667L66.5829 28.5533C66.5713 29.42 66.2667 30.0074 65.7058 30.4006C65.1143 30.8152 64.1719 31.06 62.8028 31.06V32.06ZM67.5828 28.56C67.5828 26.6908 66.0118 25.3787 63.4469 24.4877L63.1187 25.4323C65.6205 26.3013 66.5828 27.3891 66.5828 28.56H67.5828ZM73.5922 9.64L73.9457 9.99355L73.9514 9.98785L73.957 9.98197L73.5922 9.64ZM76.5922 9.56H77.0922V9.35289L76.9457 9.20645L76.5922 9.56ZM76.5922 15.48H76.0922V15.98H76.5922V15.48ZM83.1522 15.8L82.7522 16.1L82.7635 16.1151L82.7759 16.1293L83.1522 15.8ZM83.4322 16.88V17.38H83.9322V16.88H83.4322ZM76.5922 16.88V16.38H76.0922V16.88H76.5922ZM77.8322 30.36L77.4844 30.7193L77.4902 30.7248L77.8322 30.36ZM84.3922 29.72L84.8152 29.9866L84.3922 29.72ZM85.5522 23.76L85.0778 23.6019L85.0522 23.6789V23.76H85.5522ZM85.2322 31L84.8367 30.694L84.8331 30.6988L85.2322 31ZM74.9522 31.36L75.2862 30.988L74.9522 31.36ZM73.4922 11.44C73.4922 10.7171 73.6726 10.2667 73.9457 9.99355L73.2386 9.28645C72.7118 9.81329 72.4922 10.5629 72.4922 11.44H73.4922ZM73.957 9.98197C74.2574 9.66152 74.6295 9.5 75.1122 9.5V8.5C74.3682 8.5 73.727 8.76514 73.2274 9.29803L73.957 9.98197ZM75.1122 9.5C75.6161 9.5 75.9743 9.6492 76.2386 9.91355L76.9457 9.20645C76.4634 8.72413 75.835 8.5 75.1122 8.5V9.5ZM76.0922 9.56V15.48H77.0922V9.56H76.0922ZM76.5922 15.98H82.0722V14.98H76.5922V15.98ZM82.0722 15.98C82.3253 15.98 82.5029 16.0047 82.6201 16.0394C82.738 16.0743 82.7583 16.1081 82.7522 16.1L83.5522 15.5C83.3861 15.2786 83.1464 15.1523 82.9042 15.0806C82.6615 15.0087 82.3791 14.98 82.0722 14.98V15.98ZM82.7759 16.1293C82.8403 16.2028 82.9322 16.4087 82.9322 16.88H83.9322C83.9322 16.338 83.8374 15.8238 83.5285 15.4707L82.7759 16.1293ZM83.4322 16.38H76.5922V17.38H83.4322V16.38ZM76.0922 16.88V26.96H77.0922V16.88H76.0922ZM76.0922 26.96C76.0922 28.5228 76.5355 29.8009 77.4845 30.7193L78.1799 30.0007C77.4756 29.3191 77.0922 28.3305 77.0922 26.96H76.0922ZM77.4902 30.7248C78.4291 31.605 79.5224 32.06 80.7522 32.06V31.06C79.7953 31.06 78.9419 30.715 78.1742 29.9952L77.4902 30.7248ZM80.7522 32.06C82.5488 32.06 83.9361 31.3811 84.8152 29.9866L83.9692 29.4534C83.3016 30.5123 82.2622 31.06 80.7522 31.06V32.06ZM84.8152 29.9866C85.6666 28.636 86.0522 26.5298 86.0522 23.76H85.0522C85.0522 26.4835 84.6644 28.3507 83.9692 29.4534L84.8152 29.9866ZM86.0265 23.9181C86.013 23.9588 85.9894 23.9935 85.9636 24.018C85.94 24.0403 85.9232 24.0461 85.9279 24.0442C85.9329 24.0422 85.9523 24.0356 85.9921 24.0297C86.0313 24.024 86.0839 24.02 86.1522 24.02V23.02C85.9493 23.02 85.7406 23.0421 85.5565 23.1158C85.3607 23.1941 85.1633 23.3455 85.0778 23.6019L86.0265 23.9181ZM86.1522 24.02C86.0655 24.02 86.1227 23.928 86.2188 24.2108C86.3118 24.4848 86.3722 24.9483 86.3722 25.64H87.3722C87.3722 24.9184 87.3126 24.3219 87.1656 23.8892C87.0217 23.4654 86.7188 23.02 86.1522 23.02V24.02ZM86.3722 25.64C86.3722 27.7131 85.849 29.3855 84.8367 30.6941L85.6277 31.3059C86.802 29.7879 87.3722 27.8869 87.3722 25.64H86.3722ZM84.8331 30.6988C83.8855 31.9544 82.4012 32.62 80.2722 32.62V33.62C82.6232 33.62 84.4455 32.8723 85.6313 31.3012L84.8331 30.6988ZM80.2722 32.62C78.1204 32.62 76.478 32.0581 75.2862 30.988L74.6181 31.732C76.0397 33.0085 77.9439 33.62 80.2722 33.62V32.62ZM75.2862 30.988C74.1163 29.9374 73.4922 28.3461 73.4922 26.12H72.4922C72.4922 28.5339 73.1747 30.4359 74.6181 31.732L75.2862 30.988ZM73.4922 26.12V11.44H72.4922V26.12H73.4922ZM85.9284 11L85.5749 11.3536V11.3536L85.9284 11ZM85.9284 7.64L86.282 7.99355L86.287 7.9885L86.2919 7.98331L85.9284 7.64ZM89.2884 7.64L88.9249 7.98331L88.9347 7.9937L88.9451 8.00351L89.2884 7.64ZM89.2884 11L88.9451 10.6365L88.9399 10.6414L88.9349 10.6464L89.2884 11ZM86.3684 15.56L86.722 15.9136L86.7277 15.9079L86.7332 15.902L86.3684 15.56ZM89.3684 15.48H89.8684V15.2729L89.722 15.1264L89.3684 15.48ZM90.2484 30.4L89.8501 30.7022L90.2484 30.4ZM95.4884 29.72L95.0822 29.4285L95.4884 29.72ZM96.8084 23.76L96.3341 23.6019L96.3084 23.6789V23.76H96.8084ZM96.4484 30.92L96.8458 31.2235L96.4484 30.92ZM87.3284 31.2L86.9404 31.5153L86.9443 31.5201L87.3284 31.2ZM86.282 10.6464C85.9265 10.291 85.7484 9.85995 85.7484 9.32H84.7484C84.7484 10.1134 85.0237 10.8024 85.5749 11.3536L86.282 10.6464ZM85.7484 9.32C85.7484 8.78004 85.9265 8.34903 86.282 7.99355L85.5749 7.28645C85.0237 7.83764 84.7484 8.52662 84.7484 9.32H85.7484ZM86.2919 7.98331C86.6498 7.60442 87.0778 7.42 87.6084 7.42V6.42C86.8057 6.42 86.1138 6.71558 85.5649 7.29669L86.2919 7.98331ZM87.6084 7.42C88.1391 7.42 88.5671 7.60442 88.9249 7.98331L89.6519 7.29669C89.1031 6.71558 88.4111 6.42 87.6084 6.42V7.42ZM88.9451 8.00351C89.324 8.36135 89.5084 8.78938 89.5084 9.32H90.5084C90.5084 8.51729 90.2129 7.82532 89.6318 7.27649L88.9451 8.00351ZM89.5084 9.32C89.5084 9.85062 89.324 10.2787 88.9451 10.6365L89.6318 11.3635C90.2129 10.8147 90.5084 10.1227 90.5084 9.32H89.5084ZM88.9349 10.6464C88.5794 11.0019 88.1484 11.18 87.6084 11.18V12.18C88.4018 12.18 89.0908 11.9047 89.642 11.3536L88.9349 10.6464ZM87.6084 11.18C87.0685 11.18 86.6375 11.0019 86.282 10.6464L85.5749 11.3536C86.1261 11.9047 86.8151 12.18 87.6084 12.18V11.18ZM86.2684 17.36C86.2684 16.6371 86.4488 16.1867 86.722 15.9136L86.0149 15.2064C85.488 15.7333 85.2684 16.4829 85.2684 17.36H86.2684ZM86.7332 15.902C87.0336 15.5815 87.4057 15.42 87.8884 15.42V14.42C87.1445 14.42 86.5033 14.6851 86.0037 15.218L86.7332 15.902ZM87.8884 15.42C88.3923 15.42 88.7505 15.5692 89.0149 15.8336L89.722 15.1264C89.2397 14.6441 88.6112 14.42 87.8884 14.42V15.42ZM88.8684 15.48V26.96H89.8684V15.48H88.8684ZM88.8684 26.96C88.8684 28.5314 89.1695 29.805 89.8501 30.7022L90.6468 30.0978C90.1541 29.4483 89.8684 28.4286 89.8684 26.96H88.8684ZM89.8501 30.7022C90.536 31.6064 91.4867 32.06 92.6484 32.06V31.06C91.7835 31.06 91.1342 30.7403 90.6468 30.0978L89.8501 30.7022ZM92.6484 32.06C93.8908 32.06 94.969 31.3019 95.8947 30.0115L95.0822 29.4285C94.2479 30.5915 93.4328 31.06 92.6484 31.06V32.06ZM95.8947 30.0115C96.8681 28.6546 97.3084 26.5366 97.3084 23.76H96.3084C96.3084 26.4767 95.8687 28.3321 95.0822 29.4285L95.8947 30.0115ZM97.2828 23.9181C97.2692 23.9588 97.2457 23.9935 97.2198 24.018C97.1963 24.0403 97.1795 24.0461 97.1841 24.0442C97.1891 24.0422 97.2085 24.0356 97.2483 24.0297C97.2876 24.024 97.3402 24.02 97.4084 24.02V23.02C97.2056 23.02 96.9968 23.0421 96.8127 23.1158C96.617 23.1941 96.4196 23.3455 96.3341 23.6019L97.2828 23.9181ZM97.4084 24.02C97.3218 24.02 97.379 23.928 97.475 24.2108C97.568 24.4848 97.6284 24.9483 97.6284 25.64H98.6284C98.6284 24.9184 98.5688 24.3219 98.4219 23.8892C98.2779 23.4654 97.9751 23.02 97.4084 23.02V24.02ZM97.6284 25.64C97.6284 27.5967 97.097 29.2469 96.0511 30.6165L96.8458 31.2235C98.0399 29.6598 98.6284 27.79 98.6284 25.64H97.6284ZM96.0511 30.6165C95.0185 31.9686 93.7346 32.62 92.1684 32.62V33.62C94.069 33.62 95.6383 32.8047 96.8458 31.2235L96.0511 30.6165ZM92.1684 32.62C90.1095 32.62 88.6576 32.014 87.7125 30.8799L86.9443 31.5201C88.1326 32.946 89.9073 33.62 92.1684 33.62V32.62ZM87.7165 30.8847C86.7741 29.7248 86.2684 28.0394 86.2684 25.76H85.2684C85.2684 28.1739 85.8028 30.1152 86.9404 31.5153L87.7165 30.8847ZM86.2684 25.76V17.36H85.2684V25.76H86.2684ZM114.018 28.28L114.48 28.4712L114.018 28.28ZM112.618 30.56L112.232 30.2426L112.225 30.2511L112.618 30.56ZM110.098 32.4L109.897 31.9422L109.893 31.944L110.098 32.4ZM99.4184 30.88L99.0829 31.2508L99.0892 31.2563L99.4184 30.88ZM99.1384 17.4L99.5068 17.7381L99.5095 17.7351L99.1384 17.4ZM108.538 16.28L108.158 16.6045L108.163 16.6101L108.538 16.28ZM109.098 21.04L108.745 20.6864H108.745L109.098 21.04ZM106.578 21.16L106.114 20.9743L106.017 21.2185L106.162 21.4374L106.578 21.16ZM106.058 17.4L106.444 17.0816L106.058 17.4ZM101.498 18.32L101.044 18.1123L101.04 18.1206L101.498 18.32ZM102.218 29.8L101.84 30.1268L101.844 30.1317L102.218 29.8ZM111.178 29.88L111.512 30.2529L111.516 30.2489L111.178 29.88ZM113.058 25.04L112.565 24.9578L112.558 24.9986V25.04H113.058ZM113.658 25.3C113.81 25.3 113.855 25.3434 113.883 25.3833C113.934 25.453 113.998 25.6188 113.998 25.96H114.998C114.998 25.5279 114.923 25.1136 114.693 24.7967C114.442 24.4499 114.067 24.3 113.658 24.3V25.3ZM113.998 25.96C113.998 26.6625 113.853 27.3711 113.556 28.0888L114.48 28.4712C114.823 27.6423 114.998 26.8042 114.998 25.96H113.998ZM113.556 28.0888C113.258 28.8102 112.819 29.5283 112.232 30.2426L113.005 30.8774C113.645 30.0984 114.139 29.2965 114.48 28.4712L113.556 28.0888ZM112.225 30.2511C111.701 30.9185 110.934 31.4869 109.897 31.9422L110.299 32.8578C111.449 32.3531 112.363 31.6948 113.012 30.8689L112.225 30.2511ZM109.893 31.944C108.901 32.3907 107.759 32.62 106.458 32.62V33.62C107.878 33.62 109.163 33.3693 110.304 32.856L109.893 31.944ZM106.458 32.62C103.554 32.62 101.338 31.8949 99.7477 30.5037L99.0892 31.2563C100.913 32.8518 103.39 33.62 106.458 33.62V32.62ZM99.7539 30.5092C98.2065 29.1092 97.3984 27.0479 97.3984 24.24H96.3984C96.3984 27.2454 97.2703 29.6108 99.083 31.2508L99.7539 30.5092ZM97.3984 24.24C97.3984 21.3899 98.1228 19.2457 99.5068 17.7381L98.7701 17.0619C97.1674 18.8076 96.3984 21.2234 96.3984 24.24H97.3984ZM99.5095 17.7351C100.904 16.1916 102.673 15.42 104.858 15.42V14.42C102.404 14.42 100.36 15.3017 98.7674 17.0649L99.5095 17.7351ZM104.858 15.42C106.454 15.42 107.514 15.8492 108.158 16.6045L108.919 15.9555C108.016 14.8975 106.623 14.42 104.858 14.42V15.42ZM108.163 16.6101C108.852 17.3942 109.198 18.3286 109.198 19.44H110.198C110.198 18.0981 109.772 16.9258 108.914 15.9499L108.163 16.6101ZM109.198 19.44C109.198 19.9995 109.035 20.3968 108.745 20.6864L109.452 21.3936C109.962 20.8832 110.198 20.2138 110.198 19.44H109.198ZM108.745 20.6864C108.391 21.0402 108.124 21.14 107.938 21.14V22.14C108.499 22.14 109.006 21.8398 109.452 21.3936L108.745 20.6864ZM107.938 21.14C107.281 21.14 107.061 20.9818 106.994 20.8826L106.162 21.4374C106.523 21.9782 107.209 22.14 107.938 22.14V21.14ZM107.043 21.3457C107.238 20.8585 107.318 20.2106 107.318 19.44H106.318C106.318 20.1628 106.239 20.6615 106.114 20.9743L107.043 21.3457ZM107.318 19.44C107.318 18.5692 107.019 17.7782 106.444 17.0816L105.673 17.7184C106.111 18.2485 106.318 18.8175 106.318 19.44H107.318ZM106.444 17.0816C105.854 16.3669 105.104 15.98 104.218 15.98V16.98C104.772 16.98 105.25 17.2064 105.673 17.7184L106.444 17.0816ZM104.218 15.98C103.507 15.98 102.866 16.1554 102.318 16.5259C101.773 16.8947 101.353 17.4348 101.044 18.1124L101.953 18.5276C102.204 17.9786 102.517 17.5986 102.879 17.3541C103.238 17.1112 103.677 16.98 104.218 16.98V15.98ZM101.04 18.1206C100.464 19.4457 100.198 21.4652 100.198 24.12H101.198C101.198 21.4948 101.466 19.6476 101.957 18.5194L101.04 18.1206ZM100.198 24.12C100.198 26.7775 100.71 28.8182 101.84 30.1268L102.597 29.4732C101.7 28.4351 101.198 26.6892 101.198 24.12H100.198ZM101.844 30.1317C102.996 31.4309 104.583 32.06 106.538 32.06V31.06C104.814 31.06 103.521 30.5158 102.593 29.4683L101.844 30.1317ZM106.538 32.06C108.489 32.06 110.158 31.4627 111.512 30.2528L110.845 29.5072C109.693 30.5373 108.268 31.06 106.538 31.06V32.06ZM111.516 30.2489C112.895 28.9868 113.558 27.2263 113.558 25.04H112.558C112.558 27.0137 111.968 28.4799 110.841 29.5111L111.516 30.2489ZM113.552 25.1222C113.542 25.182 113.513 25.2374 113.474 25.2783C113.44 25.3145 113.412 25.3252 113.414 25.3242C113.416 25.3233 113.436 25.3164 113.48 25.3102C113.523 25.3042 113.582 25.3 113.658 25.3V24.3C113.448 24.3 113.23 24.3209 113.043 24.3958C112.841 24.4766 112.617 24.65 112.565 24.9578L113.552 25.1222ZM133.669 31.04L133.266 30.745L133.669 31.04ZM124.909 31.36L124.564 31.7212L124.568 31.725L124.909 31.36ZM122.549 27.04L123.041 26.9464L122.925 26.341L122.357 26.5787L122.549 27.04ZM116.749 28.32L116.724 27.8207L116.249 27.845V28.32H116.749ZM116.749 32.56L117.156 32.8506L117.249 32.7202V32.56H116.749ZM113.749 32.52L113.385 32.862L113.39 32.8679L113.396 32.8736L113.749 32.52ZM114.149 3.12L114.609 3.31792L114.61 3.31507L114.149 3.12ZM116.749 14.4L116.396 14.0464L116.249 14.1929V14.4H116.749ZM116.749 18.24H116.249L117.189 18.4783L116.749 18.24ZM126.549 16.24L126.222 16.6175L126.226 16.6217L126.549 16.24ZM125.469 25.24L125.139 24.8644L124.951 25.0303L124.971 25.2808L125.469 25.24ZM126.949 29.64L126.531 29.9134L126.533 29.9174L126.949 29.64ZM132.789 29.68L133.223 29.9291L133.225 29.9251L132.789 29.68ZM133.869 23.76L133.376 23.6778L133.369 23.7186V23.76H133.869ZM123.869 17.28L123.469 17.5801L123.476 17.5882L123.869 17.28ZM118.269 18.68L117.852 18.4043L117.849 18.4093L118.269 18.68ZM116.749 26.76H116.249V27.3151L116.801 27.2573L116.749 26.76ZM122.389 24.4L122.726 24.77L122.729 24.7666L122.389 24.4ZM116.749 12.48H116.249V13.9448L117.145 12.7857L116.749 12.48ZM116.989 4.16L116.494 4.09533L116.989 4.16ZM134.469 24.02C134.383 24.02 134.44 23.928 134.536 24.2108C134.629 24.4848 134.689 24.9483 134.689 25.64H135.689C135.689 24.9184 135.63 24.3219 135.483 23.8892C135.339 23.4654 135.036 23.02 134.469 23.02V24.02ZM134.689 25.64C134.689 27.7779 134.2 29.4658 133.266 30.745L134.073 31.335C135.165 29.8409 135.689 27.9287 135.689 25.64H134.689ZM133.266 30.745C132.351 31.9968 131.104 32.62 129.469 32.62V33.62C131.408 33.62 132.961 32.8565 134.073 31.335L133.266 30.745ZM129.469 32.62C127.804 32.62 126.408 32.0778 125.251 30.995L124.568 31.725C125.918 32.9889 127.562 33.62 129.469 33.62V32.62ZM125.255 30.9988C124.076 29.8696 123.341 28.5227 123.041 26.9464L122.058 27.1336C122.398 28.9173 123.236 30.4504 124.564 31.7212L125.255 30.9988ZM122.357 26.5787C120.627 27.3015 118.751 27.7167 116.724 27.8207L116.775 28.8193C118.908 28.71 120.898 28.2718 122.742 27.5013L122.357 26.5787ZM116.249 28.32V32.56H117.249V28.32H116.249ZM116.343 32.2694C116.207 32.4589 115.932 32.62 115.349 32.62V33.62C116.1 33.62 116.758 33.4078 117.156 32.8506L116.343 32.2694ZM115.349 32.62C114.79 32.62 114.393 32.4561 114.103 32.1664L113.396 32.8736C113.906 33.3839 114.576 33.62 115.349 33.62V32.62ZM114.114 32.178C113.829 31.8736 113.649 31.4003 113.649 30.68H112.649C112.649 31.5597 112.87 32.313 113.385 32.862L114.114 32.178ZM113.649 30.68V10.64H112.649V30.68H113.649ZM113.649 10.64C113.649 7.18454 113.985 4.76525 114.609 3.31791L113.69 2.92208C112.981 4.56808 112.649 7.16213 112.649 10.64H113.649ZM114.61 3.31507C114.908 2.61049 115.332 2.10758 115.871 1.77598C116.414 1.44216 117.111 1.26 117.989 1.26V0.259998C116.974 0.259998 116.084 0.471165 115.348 0.924017C114.607 1.37908 114.057 2.05617 113.689 2.92492L114.61 3.31507ZM117.989 1.26C118.833 1.26 119.463 1.6006 119.931 2.31433L120.767 1.76567C120.116 0.772732 119.173 0.259998 117.989 0.259998V1.26ZM119.931 2.31433C120.416 3.05313 120.689 4.15523 120.689 5.68H121.689C121.689 4.0581 121.403 2.73353 120.767 1.76567L119.931 2.31433ZM120.689 5.68C120.689 8.34964 119.306 11.1366 116.396 14.0464L117.103 14.7536C120.113 11.7434 121.689 8.71702 121.689 5.68H120.689ZM116.249 14.4V18.24H117.249V14.4H116.249ZM117.189 18.4783C117.751 17.4416 118.47 16.6843 119.339 16.1832C120.21 15.6813 121.26 15.42 122.509 15.42V14.42C121.119 14.42 119.889 14.712 118.84 15.3168C117.789 15.9223 116.948 16.8251 116.31 18.0017L117.189 18.4783ZM122.509 15.42C124.1 15.42 125.32 15.8349 126.222 16.6175L126.877 15.8625C125.752 14.8851 124.278 14.42 122.509 14.42V15.42ZM126.226 16.6217C127.14 17.395 127.609 18.4479 127.609 19.84H128.609C128.609 18.1921 128.038 16.845 126.872 15.8583L126.226 16.6217ZM127.609 19.84C127.609 21.7284 126.808 23.3978 125.139 24.8644L125.799 25.6156C127.651 23.9889 128.609 22.0582 128.609 19.84H127.609ZM124.971 25.2808C125.111 26.9865 125.63 28.5338 126.531 29.9134L127.368 29.3666C126.562 28.1328 126.095 26.7468 125.968 25.1992L124.971 25.2808ZM126.533 29.9174C127.46 31.3079 128.684 32.06 130.189 32.06V31.06C129.081 31.06 128.145 30.5321 127.365 29.3626L126.533 29.9174ZM130.189 32.06C131.453 32.06 132.456 31.2641 133.223 29.9291L132.356 29.4309C131.683 30.6026 130.953 31.06 130.189 31.06V32.06ZM133.225 29.9251C134.009 28.5314 134.369 26.4528 134.369 23.76H133.369C133.369 26.4005 133.01 28.2686 132.354 29.4349L133.225 29.9251ZM134.363 23.8422C134.353 23.902 134.324 23.9574 134.285 23.9983C134.251 24.0345 134.223 24.0452 134.225 24.0442C134.227 24.0433 134.247 24.0364 134.291 24.0302C134.334 24.0242 134.393 24.02 134.469 24.02V23.02C134.259 23.02 134.041 23.0409 133.854 23.1158C133.652 23.1966 133.427 23.37 133.376 23.6778L134.363 23.8422ZM125.089 19.88C125.089 18.6958 124.836 17.7044 124.263 16.9718L123.476 17.5882C123.862 18.0823 124.089 18.8242 124.089 19.88H125.089ZM124.269 16.98C123.703 16.2246 122.946 15.82 122.029 15.82V16.82C122.606 16.82 123.076 17.0554 123.469 17.58L124.269 16.98ZM122.029 15.82C120.347 15.82 118.955 16.7359 117.852 18.4043L118.686 18.9557C119.664 17.4774 120.778 16.82 122.029 16.82V15.82ZM117.849 18.4093C116.752 20.1118 116.249 22.932 116.249 26.76H117.249C117.249 22.9614 117.76 20.3949 118.69 18.9507L117.849 18.4093ZM116.801 27.2573C119.183 27.0081 121.168 26.1862 122.726 24.77L122.053 24.03C120.678 25.2805 118.903 26.0319 116.697 26.2627L116.801 27.2573ZM122.729 24.7666C124.275 23.3335 125.089 21.7012 125.089 19.88H124.089C124.089 21.3655 123.437 22.7465 122.049 24.0334L122.729 24.7666ZM117.145 12.7857C119.003 10.3811 119.969 7.99633 119.969 5.64H118.969C118.969 7.71033 118.122 9.88555 116.354 12.1743L117.145 12.7857ZM119.969 5.64C119.969 4.51253 119.849 3.59967 119.568 2.95104C119.425 2.6212 119.23 2.3353 118.964 2.13105C118.691 1.92157 118.373 1.82 118.029 1.82V2.82C118.166 2.82 118.267 2.85676 118.355 2.92395C118.449 2.99636 118.554 3.12546 118.651 3.34896C118.849 3.807 118.969 4.55413 118.969 5.64H119.969ZM118.029 1.82C117.525 1.82 117.163 2.12814 116.934 2.53397C116.714 2.92386 116.577 3.45907 116.494 4.09533L117.485 4.22467C117.562 3.63427 117.678 3.24948 117.805 3.02603C117.922 2.81852 118.001 2.82 118.029 2.82V1.82ZM116.494 4.09533C116.329 5.36068 116.249 8.1691 116.249 12.48H117.249C117.249 8.1509 117.33 5.41265 117.485 4.22467L116.494 4.09533Z" fill="black"/>
<path d="M137.416 33V31.0273H139.34V33H137.416ZM145.697 33.2051C144.838 33.2051 144.099 32.9935 143.48 32.5703C142.868 32.1406 142.4 31.5449 142.074 30.7832C141.749 30.0215 141.586 29.1328 141.586 28.1172V27.9121C141.586 26.7793 141.749 25.7865 142.074 24.9336C142.4 24.0807 142.872 23.4199 143.49 22.9512C144.109 22.4759 144.851 22.2383 145.717 22.2383C146.342 22.2383 146.892 22.3555 147.367 22.5898C147.849 22.8177 148.259 23.1497 148.598 23.5859V19.2793L147.006 19.0059V17.7656H150.521V31.4961L152.113 31.7695V33H148.852L148.695 31.7402C147.992 32.7168 146.993 33.2051 145.697 33.2051ZM146.186 31.6426C146.758 31.6426 147.24 31.5124 147.631 31.252C148.021 30.9915 148.344 30.6237 148.598 30.1484V25.2461C148.35 24.8034 148.028 24.4518 147.631 24.1914C147.234 23.931 146.758 23.8008 146.205 23.8008C145.287 23.8008 144.607 24.1816 144.164 24.9434C143.728 25.7051 143.51 26.6947 143.51 27.9121V28.1172C143.51 29.1784 143.728 30.0312 144.164 30.6758C144.6 31.3203 145.274 31.6426 146.186 31.6426ZM158.197 33.2051C157.221 33.2051 156.371 32.9837 155.648 32.541C154.926 32.0918 154.366 31.4701 153.969 30.6758C153.578 29.8815 153.383 28.9635 153.383 27.9219V27.4922C153.383 26.4896 153.588 25.5944 153.998 24.8066C154.415 24.0124 154.965 23.3874 155.648 22.9316C156.339 22.4694 157.09 22.2383 157.904 22.2383C159.324 22.2383 160.398 22.668 161.127 23.5273C161.863 24.3867 162.23 25.5326 162.23 26.9648V28.166H155.375L155.346 28.2148C155.365 29.2305 155.622 30.0671 156.117 30.7246C156.612 31.3757 157.305 31.7012 158.197 31.7012C158.848 31.7012 159.418 31.61 159.906 31.4277C160.401 31.2389 160.827 30.9818 161.186 30.6562L161.938 31.9062C161.56 32.2708 161.059 32.5801 160.434 32.834C159.815 33.0814 159.07 33.2051 158.197 33.2051ZM155.434 26.6621H160.307V26.4082C160.307 25.653 160.105 25.0215 159.701 24.5137C159.298 24.0059 158.699 23.752 157.904 23.752C157.26 23.752 156.71 24.0254 156.254 24.5723C155.798 25.1126 155.518 25.793 155.414 26.6133L155.434 26.6621ZM167.885 33L164.125 23.8203L163.031 23.6738V22.4336H167.465V23.6738L166.088 23.8691L168.432 29.8848L168.705 30.7344H168.764L169.076 29.8848L171.254 23.8691L169.838 23.6738V22.4336H174.262V23.6738L173.148 23.8203L169.574 33H167.885Z" fill="black"/>
</svg>
